ffmpeg version 8.0.1-essentials_build-www.gyan.dev Copyright (c) 2000-2025 the FFmpeg developers
  built with gcc 15.2.0 (Rev8, Built by MSYS2 project)
  configuration: --enable-gpl --enable-version3 --enable-static --disable-w32threads --disable-autodetect --enable-fontconfig --enable-iconv --enable-gnutls --enable-libxml2 --enable-gmp --enable-bzlib --enable-lzma --enable-zlib --enable-libsrt --enable-libssh --enable-libzmq --enable-avisynth --enable-sdl2 --enable-libwebp --enable-libx264 --enable-libx265 --enable-libxvid --enable-libaom --enable-libopenjpeg --enable-libvpx --enable-mediafoundation --enable-libass --enable-libfreetype --enable-libfribidi --enable-libharfbuzz --enable-libvidstab --enable-libvmaf --enable-libzimg --enable-amf --enable-cuda-llvm --enable-cuvid --enable-dxva2 --enable-d3d11va --enable-d3d12va --enable-ffnvcodec --enable-libvpl --enable-nvdec --enable-nvenc --enable-vaapi --enable-openal --enable-libgme --enable-libopenmpt --enable-libopencore-amrwb --enable-libmp3lame --enable-libtheora --enable-libvo-amrwbenc --enable-libgsm --enable-libopencore-amrnb --enable-libopus --enable-libspeex --enable-libvorbis --enable-librubberband
  libavutil      60.  8.100 / 60.  8.100
  libavcodec     62. 11.100 / 62. 11.100
  libavformat    62.  3.100 / 62.  3.100
  libavdevice    62.  1.100 / 62.  1.100
  libavfilter    11.  4.100 / 11.  4.100
  libswscale      9.  1.100 /  9.  1.100
  libswresample   6.  1.100 /  6.  1.100
Input #0, rawvideo, from 'fd:':
  Duration: N/A, start: 0.000000, bitrate: 7077888 kb/s
  Stream #0:0: Video: rawvideo (BGRA / 0x41524742), bgra, 2560x1440, 7077888 kb/s, 60 tbr, 60 tbn
Stream mapping:
  Stream #0:0 -> #0:0 (rawvideo (native) -> h264 (h264_nvenc))
Output #0, mp4, to 'GuideHammerFlatMine.mp4':
  Metadata:
    encoder         : Lavf62.3.100
  Stream #0:0: Video: h264 (Main) (avc1 / 0x31637661), yuv420p(tv, progressive), 2560x1440, q=2-31, 41943 kb/s, 60 fps, 15360 tbn
    Metadata:
      encoder         : Lavc62.11.100 h264_nvenc
    Side data:
      cpb: bitrate max/min/avg: 0/0/41943040 buffer size: 83886080 vbv_delay: N/A
frame=    0 fps=0.0 q=0.0 size=       0KiB time=N/A bitrate=N/A speed=N/A elapsed=0:00:00.51    frame=    0 fps=0.0 q=0.0 size=       0KiB time=N/A bitrate=N/A speed=N/A elapsed=0:00:01.03    frame=    0 fps=0.0 q=0.0 size=       0KiB time=N/A bitrate=N/A speed=N/A elapsed=0:00:01.54    frame=    6 fps=2.9 q=24.0 size=    2304KiB time=00:00:00.05 bitrate=377495.0kbits/s speed=0.0242x elapsed=0:00:02.06    frame=   14 fps=5.4 q=24.0 size=    3072KiB time=00:00:00.18 bitrate=137270.5kbits/s speed=0.0713x elapsed=0:00:02.57    frame=   23 fps=7.4 q=28.0 size=    3840KiB time=00:00:00.33 bitrate=94373.1kbits/s speed=0.108x elapsed=0:00:03.09    frame=   31 fps=8.6 q=28.0 size=    4352KiB time=00:00:00.46 bitrate=76397.0kbits/s speed=0.129x elapsed=0:00:03.61    frame=   40 fps=9.7 q=30.0 size=    4864KiB time=00:00:00.61 bitrate=64615.5kbits/s speed=0.149x elapsed=0:00:04.13    frame=   48 fps= 10 q=30.0 size=    5376KiB time=00:00:00.75 bitrate=58720.8kbits/s speed=0.161x elapsed=0:00:04.65    frame=   57 fps= 11 q=30.0 size=    5888KiB time=00:00:00.90 bitrate=53594.3kbits/s speed=0.174x elapsed=0:00:05.17    frame=   65 fps= 11 q=30.0 size=    6400KiB time=00:00:01.03 bitrate=50737.9kbits/s speed=0.181x elapsed=0:00:05.69    frame=   74 fps= 12 q=21.0 size=    6912KiB time=00:00:01.18 bitrate=47850.8kbits/s speed=0.191x elapsed=0:00:06.19    frame=   82 fps= 12 q=21.0 size=    7680KiB time=00:00:01.31 bitrate=47783.5kbits/s speed=0.196x elapsed=0:00:06.71    frame=   90 fps= 12 q=21.0 size=    8192KiB time=00:00:01.45 bitrate=46282.2kbits/s speed= 0.2x elapsed=0:00:07.23    frame=   99 fps= 13 q=26.0 size=    9216KiB time=00:00:01.60 bitrate=47186.2kbits/s speed=0.206x elapsed=0:00:07.75    frame=  107 fps= 13 q=26.0 size=    9984KiB time=00:00:01.73 bitrate=47186.2kbits/s speed=0.21x elapsed=0:00:08.26    frame=  116 fps= 13 q=29.0 size=   10752KiB time=00:00:01.88 bitrate=46768.6kbits/s speed=0.214x elapsed=0:00:08.78    frame=  124 fps= 13 q=29.0 size=   11520KiB time=00:00:02.01 bitrate=46796.1kbits/s speed=0.217x elapsed=0:00:09.30    frame=  133 fps= 14 q=29.0 size=   12288KiB time=00:00:02.16 bitrate=46460.2kbits/s speed=0.221x elapsed=0:00:09.80    frame=  141 fps= 14 q=29.0 size=   13056KiB time=00:00:02.30 bitrate=46502.2kbits/s speed=0.223x elapsed=0:00:10.32    frame=  150 fps= 14 q=21.0 size=   13824KiB time=00:00:02.45 bitrate=46223.1kbits/s speed=0.226x elapsed=0:00:10.84    frame=  156 fps= 14 q=29.0 size=   14336KiB time=00:00:02.55 bitrate=46055.3kbits/s speed=0.224x elapsed=0:00:11.36    frame=  163 fps= 14 q=26.0 size=   15104KiB time=00:00:02.66 bitrate=46399.6kbits/s speed=0.224x elapsed=0:00:11.88    frame=  170 fps= 14 q=21.0 size=   15360KiB time=00:00:02.78 bitrate=45208.2kbits/s speed=0.224x elapsed=0:00:12.40    frame=  178 fps= 14 q=21.0 size=   16128KiB time=00:00:02.91 bitrate=45298.6kbits/s speed=0.226x elapsed=0:00:12.92    frame=  186 fps= 14 q=21.0 size=   16896KiB time=00:00:03.05 bitrate=45381.1kbits/s speed=0.227x elapsed=0:00:13.44    frame=  194 fps= 14 q=21.0 size=   17664KiB time=00:00:03.18 bitrate=45456.7kbits/s speed=0.228x elapsed=0:00:13.96    frame=  202 fps= 14 q=21.0 size=   18432KiB time=00:00:03.31 bitrate=45526.2kbits/s speed=0.229x elapsed=0:00:14.46    frame=  210 fps= 14 q=21.0 size=   19200KiB time=00:00:03.45 bitrate=45590.4kbits/s speed=0.23x elapsed=0:00:14.98    frame=  218 fps= 14 q=22.0 size=   20224KiB time=00:00:03.58 bitrate=46235.0kbits/s speed=0.231x elapsed=0:00:15.50    frame=  226 fps= 14 q=22.0 size=   21248KiB time=00:00:03.71 bitrate=46833.4kbits/s speed=0.232x elapsed=0:00:16.01    frame=  234 fps= 14 q=22.0 size=   22016KiB time=00:00:03.85 bitrate=46845.6kbits/s speed=0.233x elapsed=0:00:16.53    frame=  241 fps= 14 q=29.0 size=   22528KiB time=00:00:03.96 bitrate=46525.1kbits/s speed=0.233x elapsed=0:00:17.05    frame=  249 fps= 14 q=29.0 size=   23296KiB time=00:00:04.10 bitrate=46546.6kbits/s speed=0.233x elapsed=0:00:17.56    frame=  257 fps= 14 q=27.0 size=   24832KiB time=00:00:04.23 bitrate=48052.9kbits/s speed=0.234x elapsed=0:00:18.07    frame=  265 fps= 14 q=27.0 size=   25344KiB time=00:00:04.36 bitrate=47546.2kbits/s speed=0.235x elapsed=0:00:18.59    frame=  273 fps= 14 q=27.0 size=   26112KiB time=00:00:04.50 bitrate=47535.5kbits/s speed=0.235x elapsed=0:00:19.11    frame=  282 fps= 14 q=30.0 size=   26624KiB time=00:00:04.65 bitrate=46904.1kbits/s speed=0.237x elapsed=0:00:19.63    frame=  290 fps= 14 q=30.0 size=   27392KiB time=00:00:04.78 bitrate=46912.0kbits/s speed=0.238x elapsed=0:00:20.13    frame=  298 fps= 14 q=30.0 size=   27904KiB time=00:00:04.91 bitrate=46492.9kbits/s speed=0.238x elapsed=0:00:20.65    frame=  307 fps= 14 q=30.0 size=   28672KiB time=00:00:05.06 bitrate=46358.2kbits/s speed=0.239x elapsed=0:00:21.17    frame=  315 fps= 15 q=30.0 size=   29440KiB time=00:00:05.20 bitrate=46379.4kbits/s speed=0.24x elapsed=0:00:21.69    frame=  324 fps= 15 q=22.0 size=   30208KiB time=00:00:05.35 bitrate=46255.0kbits/s speed=0.241x elapsed=0:00:22.19    frame=  332 fps= 15 q=22.0 size=   30976KiB time=00:00:05.48 bitrate=46277.7kbits/s speed=0.241x elapsed=0:00:22.71    frame=  341 fps= 15 q=27.0 size=   32000KiB time=00:00:05.63 bitrate=46534.5kbits/s speed=0.242x elapsed=0:00:23.23    frame=  349 fps= 15 q=27.0 size=   32768KiB time=00:00:05.76 bitrate=46549.6kbits/s speed=0.243x elapsed=0:00:23.75    frame=  357 fps= 15 q=27.0 size=   33280KiB time=00:00:05.90 bitrate=46208.5kbits/s speed=0.243x elapsed=0:00:24.25    frame=  366 fps= 15 q=30.0 size=   34048KiB time=00:00:06.05 bitrate=46102.7kbits/s speed=0.244x elapsed=0:00:24.77    frame=  374 fps= 15 q=30.0 size=   34816KiB time=00:00:06.18 bitrate=46126.1kbits/s speed=0.244x elapsed=0:00:25.30    frame=  383 fps= 15 q=30.0 size=   35328KiB time=00:00:06.33 bitrate=45695.9kbits/s speed=0.245x elapsed=0:00:25.81    frame=  391 fps= 15 q=30.0 size=   36096KiB time=00:00:06.46 bitrate=45726.6kbits/s speed=0.246x elapsed=0:00:26.32    frame=  400 fps= 15 q=22.0 size=   36864KiB time=00:00:06.61 bitrate=45640.8kbits/s speed=0.246x elapsed=0:00:26.84    frame=  408 fps= 15 q=22.0 size=   37632KiB time=00:00:06.75 bitrate=45671.4kbits/s speed=0.247x elapsed=0:00:27.36    frame=  416 fps= 15 q=22.0 size=   38400KiB time=00:00:06.88 bitrate=45700.7kbits/s speed=0.247x elapsed=0:00:27.86    frame=  425 fps= 15 q=27.0 size=   39424KiB time=00:00:07.03 bitrate=45918.7kbits/s speed=0.248x elapsed=0:00:28.39    frame=  434 fps= 15 q=30.0 size=   39936KiB time=00:00:07.18 bitrate=45543.8kbits/s speed=0.248x elapsed=0:00:28.90    frame=  442 fps= 15 q=30.0 size=   40704KiB time=00:00:07.31 bitrate=45573.7kbits/s speed=0.249x elapsed=0:00:29.42    frame=  450 fps= 15 q=30.0 size=   41216KiB time=00:00:07.45 bitrate=45321.1kbits/s speed=0.249x elapsed=0:00:29.93    frame=  459 fps= 15 q=30.0 size=   41728KiB time=00:00:07.60 bitrate=44978.4kbits/s speed=0.25x elapsed=0:00:30.45    frame=  467 fps= 15 q=30.0 size=   42496KiB time=00:00:07.73 bitrate=45016.5kbits/s speed=0.25x elapsed=0:00:30.97    frame=  476 fps= 15 q=22.0 size=   43008KiB time=00:00:07.88 bitrate=44692.0kbits/s speed=0.25x elapsed=0:00:31.49    frame=  484 fps= 15 q=22.0 size=   43520KiB time=00:00:08.01 bitrate=44471.9kbits/s speed=0.25x elapsed=0:00:32.00    frame=  493 fps= 15 q=27.0 size=   44288KiB time=00:00:08.16 bitrate=44425.4kbits/s speed=0.251x elapsed=0:00:32.51    frame=  501 fps= 15 q=20.0 size=   44800KiB time=00:00:08.30 bitrate=44217.1kbits/s speed=0.251x elapsed=0:00:33.03    frame=  510 fps= 15 q=21.0 size=   46336KiB time=00:00:08.45 bitrate=44921.3kbits/s speed=0.252x elapsed=0:00:33.55    frame=  517 fps= 15 q=29.0 size=   47104KiB time=00:00:08.56 bitrate=45043.9kbits/s speed=0.252x elapsed=0:00:34.05    frame=  525 fps= 15 q=29.0 size=   47616KiB time=00:00:08.70 bitrate=44835.7kbits/s speed=0.252x elapsed=0:00:34.57    frame=  533 fps= 15 q=29.0 size=   48384KiB time=00:00:08.83 bitrate=44871.2kbits/s speed=0.252x elapsed=0:00:35.09    frame=  541 fps= 15 q=29.0 size=   48896KiB time=00:00:08.96 bitrate=44671.7kbits/s speed=0.252x elapsed=0:00:35.61    frame=  549 fps= 15 q=29.0 size=   49408KiB time=00:00:09.10 bitrate=44478.1kbits/s speed=0.252x elapsed=0:00:36.11    frame=  558 fps= 15 q=21.0 size=   50176KiB time=00:00:09.25 bitrate=44437.0kbits/s speed=0.252x elapsed=0:00:36.63    frame=  566 fps= 15 q=23.0 size=   51456KiB time=00:00:09.38 bitrate=44923.0kbits/s speed=0.253x elapsed=0:00:37.15    frame=  575 fps= 15 q=26.0 size=   52224KiB time=00:00:09.53 bitrate=44876.2kbits/s speed=0.253x elapsed=0:00:37.67    frame=  583 fps= 15 q=26.0 size=   53248KiB time=00:00:09.66 bitrate=45125.0kbits/s speed=0.253x elapsed=0:00:38.19    frame=  591 fps= 15 q=26.0 size=   54016KiB time=00:00:09.80 bitrate=45153.0kbits/s speed=0.253x elapsed=0:00:38.70    frame=  600 fps= 15 q=29.0 size=   54528KiB time=00:00:09.95 bitrate=44893.8kbits/s speed=0.254x elapsed=0:00:39.22    frame=  608 fps= 15 q=29.0 size=   55040KiB time=00:00:10.08 bitrate=44716.2kbits/s speed=0.254x elapsed=0:00:39.73    frame=  617 fps= 15 q=29.0 size=   55552KiB time=00:00:10.23 bitrate=44470.6kbits/s speed=0.254x elapsed=0:00:40.24    frame=  625 fps= 15 q=29.0 size=   56064KiB time=00:00:10.36 bitrate=44303.2kbits/s speed=0.254x elapsed=0:00:40.76    frame=  634 fps= 15 q=22.0 size=   56832KiB time=00:00:10.51 bitrate=44269.6kbits/s speed=0.255x elapsed=0:00:41.28    frame=  642 fps= 15 q=21.0 size=   57344KiB time=00:00:10.65 bitrate=44109.1kbits/s speed=0.255x elapsed=0:00:41.79    frame=  651 fps= 15 q=26.0 size=   58112KiB time=00:00:10.80 bitrate=44079.1kbits/s speed=0.255x elapsed=0:00:42.31    frame=  659 fps= 15 q=26.0 size=   58624KiB time=00:00:10.93 bitrate=43925.1kbits/s speed=0.255x elapsed=0:00:42.82    frame=  668 fps= 15 q=29.0 size=   59392KiB time=00:00:11.08 bitrate=43898.3kbits/s speed=0.256x elapsed=0:00:43.34    frame=  676 fps= 15 q=29.0 size=   59904KiB time=00:00:11.21 bitrate=43750.4kbits/s speed=0.256x elapsed=0:00:43.86    frame=  684 fps= 15 q=29.0 size=   60416KiB time=00:00:11.35 bitrate=43606.0kbits/s speed=0.256x elapsed=0:00:44.37    frame=  693 fps= 15 q=29.0 size=   60928KiB time=00:00:11.50 bitrate=43402.0kbits/s speed=0.256x elapsed=0:00:44.89    frame=  701 fps= 15 q=28.0 size=   61696KiB time=00:00:11.63 bitrate=43445.3kbits/s speed=0.256x elapsed=0:00:45.41    frame=  710 fps= 15 q=21.0 size=   62208KiB time=00:00:11.78 bitrate=43248.2kbits/s speed=0.257x elapsed=0:00:45.91    frame=  718 fps= 15 q=21.0 size=   62976KiB time=00:00:11.91 bitrate=43292.3kbits/s speed=0.257x elapsed=0:00:46.43    frame=  727 fps= 15 q=26.0 size=   63744KiB time=00:00:12.06 bitrate=43275.5kbits/s speed=0.257x elapsed=0:00:46.95    frame=  735 fps= 15 q=26.0 size=   64512KiB time=00:00:12.20 bitrate=43318.3kbits/s speed=0.257x elapsed=0:00:47.47    frame=  744 fps= 16 q=29.0 size=   65280KiB time=00:00:12.35 bitrate=43301.6kbits/s speed=0.257x elapsed=0:00:47.98    frame=  752 fps= 16 q=21.0 size=   66560KiB time=00:00:12.48 bitrate=43679.0kbits/s speed=0.257x elapsed=0:00:48.50    frame=  761 fps= 16 q=26.0 size=   67328KiB time=00:00:12.63 bitrate=43658.4kbits/s speed=0.258x elapsed=0:00:49.01    frame=  769 fps= 16 q=26.0 size=   68096KiB time=00:00:12.76 bitrate=43695.3kbits/s speed=0.258x elapsed=0:00:49.52    frame=  778 fps= 16 q=29.0 size=   68864KiB time=00:00:12.91 bitrate=43674.9kbits/s speed=0.258x elapsed=0:00:50.05    frame=  786 fps= 16 q=29.0 size=   69376KiB time=00:00:13.05 bitrate=43550.1kbits/s speed=0.258x elapsed=0:00:50.55    frame=  794 fps= 16 q=29.0 size=   70144KiB time=00:00:13.18 bitrate=43586.9kbits/s speed=0.258x elapsed=0:00:51.07    frame=  803 fps= 16 q=29.0 size=   70912KiB time=00:00:13.33 bitrate=43568.4kbits/s speed=0.258x elapsed=0:00:51.59    frame=  811 fps= 16 q=29.0 size=   71424KiB time=00:00:13.46 bitrate=43448.4kbits/s speed=0.258x elapsed=0:00:52.10    frame=  820 fps= 16 q=21.0 size=   72192KiB time=00:00:13.61 bitrate=43431.9kbits/s speed=0.259x elapsed=0:00:52.61    frame=  828 fps= 16 q=21.0 size=   72960KiB time=00:00:13.75 bitrate=43468.3kbits/s speed=0.259x elapsed=0:00:53.14    frame=  837 fps= 16 q=26.0 size=   73984KiB time=00:00:13.90 bitrate=43602.7kbits/s speed=0.259x elapsed=0:00:53.66    frame=  845 fps= 16 q=26.0 size=   74496KiB time=00:00:14.03 bitrate=43487.3kbits/s speed=0.259x elapsed=0:00:54.16    frame=  854 fps= 16 q=29.0 size=   75264KiB time=00:00:14.18 bitrate=43471.0kbits/s speed=0.259x elapsed=0:00:54.68    frame=  862 fps= 16 q=29.0 size=   76032KiB time=00:00:14.31 bitrate=43505.6kbits/s speed=0.259x elapsed=0:00:55.20    frame=  871 fps= 16 q=29.0 size=   76544KiB time=00:00:14.46 bitrate=43344.4kbits/s speed=0.26x elapsed=0:00:55.72    frame=  879 fps= 16 q=29.0 size=   77312KiB time=00:00:14.60 bitrate=43379.5kbits/s speed=0.26x elapsed=0:00:56.23    frame=  888 fps= 16 q=21.0 size=   78080KiB time=00:00:14.75 bitrate=43364.9kbits/s speed=0.26x elapsed=0:00:56.75    frame=  896 fps= 16 q=21.0 size=   78592KiB time=00:00:14.88 bitrate=43258.2kbits/s speed=0.26x elapsed=0:00:57.25    frame=  904 fps= 16 q=21.0 size=   79360KiB time=00:00:15.01 bitrate=43293.1kbits/s speed=0.26x elapsed=0:00:57.77    frame=  913 fps= 16 q=26.0 size=   80384KiB time=00:00:15.16 bitrate=43418.0kbits/s speed=0.26x elapsed=0:00:58.29    frame=  921 fps= 16 q=26.0 size=   80896KiB time=00:00:15.30 bitrate=43313.8kbits/s speed=0.26x elapsed=0:00:58.81    frame=  930 fps= 16 q=29.0 size=   81664KiB time=00:00:15.45 bitrate=43300.4kbits/s speed=0.26x elapsed=0:00:59.32    frame=  938 fps= 16 q=29.0 size=   82176KiB time=00:00:15.58 bitrate=43199.1kbits/s speed=0.26x elapsed=0:00:59.84    frame=  947 fps= 16 q=29.0 size=   82944KiB time=00:00:15.73 bitrate=43187.1kbits/s speed=0.261x elapsed=0:01:00.36    frame=  955 fps= 16 q=29.0 size=   83456KiB time=00:00:15.86 bitrate=43088.6kbits/s speed=0.261x elapsed=0:01:00.88    frame=  963 fps= 16 q=29.0 size=   84224KiB time=00:00:16.00 bitrate=43122.7kbits/s speed=0.261x elapsed=0:01:01.38    frame=  972 fps= 16 q=21.0 size=   84736KiB time=00:00:16.15 bitrate=42981.9kbits/s speed=0.261x elapsed=0:01:01.90    frame=  980 fps= 16 q=21.0 size=   85504KiB time=00:00:16.28 bitrate=43016.3kbits/s speed=0.261x elapsed=0:01:02.42    frame=  989 fps= 16 q=26.0 size=   86272KiB time=00:00:16.43 bitrate=43006.5kbits/s speed=0.261x elapsed=0:01:02.94    frame=  997 fps= 16 q=26.0 size=   87040KiB time=00:00:16.56 bitrate=43040.2kbits/s speed=0.261x elapsed=0:01:03.44    frame= 1006 fps= 16 q=21.0 size=   88320KiB time=00:00:16.71 bitrate=43281.2kbits/s speed=0.261x elapsed=0:01:03.96    frame= 1014 fps= 16 q=21.0 size=   88832KiB time=00:00:16.85 bitrate=43187.7kbits/s speed=0.261x elapsed=0:01:04.49    frame= 1023 fps= 16 q=26.0 size=   89856KiB time=00:00:17.00 bitrate=43300.0kbits/s speed=0.262x elapsed=0:01:04.99    frame= 1031 fps= 16 q=26.0 size=   90368KiB time=00:00:17.13 bitrate=43207.9kbits/s speed=0.262x elapsed=0:01:05.51    frame= 1040 fps= 16 q=29.0 size=   90880KiB time=00:00:17.28 bitrate=43075.6kbits/s speed=0.262x elapsed=0:01:06.03    frame= 1048 fps= 16 q=28.0 size=   91392KiB time=00:00:17.41 bitrate=42986.6kbits/s speed=0.262x elapsed=0:01:06.55    frame= 1057 fps= 16 q=28.0 size=   91904KiB time=00:00:17.56 bitrate=42858.3kbits/s speed=0.262x elapsed=0:01:07.06    frame= 1065 fps= 16 q=28.0 size=   92416KiB time=00:00:17.70 bitrate=42772.4kbits/s speed=0.262x elapsed=0:01:07.57    frame= 1074 fps= 16 q=21.0 size=   93184KiB time=00:00:17.85 bitrate=42765.5kbits/s speed=0.262x elapsed=0:01:08.09    frame= 1082 fps= 16 q=21.0 size=   93696KiB time=00:00:17.98 bitrate=42681.6kbits/s speed=0.262x elapsed=0:01:08.60    frame= 1091 fps= 16 q=25.0 size=   94464KiB time=00:00:18.13 bitrate=42675.5kbits/s speed=0.262x elapsed=0:01:09.13    frame= 1099 fps= 16 q=25.0 size=   94976KiB time=00:00:18.26 bitrate=42593.6kbits/s speed=0.262x elapsed=0:01:09.63    frame= 1107 fps= 16 q=25.0 size=   95488KiB time=00:00:18.40 bitrate=42512.9kbits/s speed=0.262x elapsed=0:01:10.15    frame= 1116 fps= 16 q=28.0 size=   96256KiB time=00:00:18.55 bitrate=42508.3kbits/s speed=0.262x elapsed=0:01:10.67    frame= 1124 fps= 16 q=28.0 size=   96768KiB time=00:00:18.68 bitrate=42429.5kbits/s speed=0.262x elapsed=0:01:11.19    frame= 1133 fps= 16 q=28.0 size=   97536KiB time=00:00:18.83 bitrate=42425.6kbits/s speed=0.263x elapsed=0:01:11.69    frame= 1141 fps= 16 q=28.0 size=   98048KiB time=00:00:18.96 bitrate=42348.5kbits/s speed=0.263x elapsed=0:01:12.21    frame= 1150 fps= 16 q=21.0 size=   98560KiB time=00:00:19.11 bitrate=42235.6kbits/s speed=0.263x elapsed=0:01:12.73    frame= 1158 fps= 16 q=21.0 size=   99328KiB time=00:00:19.25 bitrate=42269.9kbits/s speed=0.263x elapsed=0:01:13.25    frame= 1167 fps= 16 q=25.0 size=  100096KiB time=00:00:19.40 bitrate=42267.4kbits/s speed=0.263x elapsed=0:01:13.77    frame= 1175 fps= 16 q=25.0 size=  100864KiB time=00:00:19.53 bitrate=42300.9kbits/s speed=0.263x elapsed=0:01:14.29    frame= 1184 fps= 16 q=28.0 size=  101632KiB time=00:00:19.68 bitrate=42298.2kbits/s speed=0.263x elapsed=0:01:14.81    frame= 1192 fps= 16 q=28.0 size=  102144KiB time=00:00:19.81 bitrate=42225.3kbits/s speed=0.263x elapsed=0:01:15.33    frame= 1201 fps= 16 q=28.0 size=  102912KiB time=00:00:19.96 bitrate=42223.1kbits/s speed=0.263x elapsed=0:01:15.83    frame= 1209 fps= 16 q=28.0 size=  103424KiB time=00:00:20.10 bitrate=42151.7kbits/s speed=0.263x elapsed=0:01:16.35    frame= 1217 fps= 16 q=28.0 size=  104192KiB time=00:00:20.23 bitrate=42184.9kbits/s speed=0.263x elapsed=0:01:16.87    frame= 1226 fps= 16 q=21.0 size=  104704KiB time=00:00:20.38 bitrate=42080.2kbits/s speed=0.263x elapsed=0:01:17.38    frame= 1234 fps= 16 q=21.0 size=  105472KiB time=00:00:20.51 bitrate=42113.4kbits/s speed=0.263x elapsed=0:01:17.90    frame= 1242 fps= 16 q=20.0 size=  106240KiB time=00:00:20.65 bitrate=42146.2kbits/s speed=0.263x elapsed=0:01:18.42    frame= 1250 fps= 16 q=20.0 size=  106752KiB time=00:00:20.78 bitrate=42077.6kbits/s speed=0.263x elapsed=0:01:18.94    frame= 1258 fps= 16 q=28.0 size=  108544KiB time=00:00:20.91 bitrate=42511.2kbits/s speed=0.263x elapsed=0:01:19.45    frame= 1266 fps= 16 q=28.0 size=  109312KiB time=00:00:21.05 bitrate=42540.8kbits/s speed=0.263x elapsed=0:01:19.96    frame= 1275 fps= 16 q=28.0 size=  110080KiB time=00:00:21.20 bitrate=42536.6kbits/s speed=0.263x elapsed=0:01:20.49    frame= 1283 fps= 16 q=28.0 size=  111104KiB time=00:00:21.33 bitrate=42664.0kbits/s speed=0.263x elapsed=0:01:20.99    frame= 1292 fps= 16 q=23.0 size=  112896KiB time=00:00:21.48 bitrate=43049.4kbits/s speed=0.264x elapsed=0:01:21.51    frame= 1301 fps= 16 q=26.0 size=  114432KiB time=00:00:21.63 bitrate=43332.5kbits/s speed=0.264x elapsed=0:01:22.03    frame= 1309 fps= 16 q=26.0 size=  114944KiB time=00:00:21.76 bitrate=43259.8kbits/s speed=0.264x elapsed=0:01:22.54    frame= 1317 fps= 16 q=26.0 size=  115200KiB time=00:00:21.90 bitrate=43092.2kbits/s speed=0.264x elapsed=0:01:23.05    frame= 1326 fps= 16 q=29.0 size=  115712KiB time=00:00:22.05 bitrate=42989.3kbits/s speed=0.264x elapsed=0:01:23.57    frame= 1334 fps= 16 q=28.0 size=  116224KiB time=00:00:22.18 bitrate=42919.9kbits/s speed=0.264x elapsed=0:01:24.09    frame= 1343 fps= 16 q=28.0 size=  116992KiB time=00:00:22.33 bitrate=42913.4kbits/s speed=0.264x elapsed=0:01:24.60    frame= 1351 fps= 16 q=29.0 size=  117760KiB time=00:00:22.46 bitrate=42938.7kbits/s speed=0.264x elapsed=0:01:25.12    frame= 1360 fps= 16 q=22.0 size=  118528KiB time=00:00:22.61 bitrate=42932.1kbits/s speed=0.264x elapsed=0:01:25.64    frame= 1368 fps= 16 q=22.0 size=  119296KiB time=00:00:22.75 bitrate=42957.1kbits/s speed=0.264x elapsed=0:01:26.15    frame= 1377 fps= 16 q=26.0 size=  120064KiB time=00:00:22.90 bitrate=42950.4kbits/s speed=0.264x elapsed=0:01:26.66    frame= 1385 fps= 16 q=26.0 size=  120576KiB time=00:00:23.03 bitrate=42883.9kbits/s speed=0.264x elapsed=0:01:27.18    frame= 1394 fps= 16 q=28.0 size=  121088KiB time=00:00:23.18 bitrate=42787.3kbits/s speed=0.264x elapsed=0:01:27.70    frame= 1402 fps= 16 q=27.0 size=  121600KiB time=00:00:23.31 bitrate=42722.6kbits/s speed=0.264x elapsed=0:01:28.21    frame= 1411 fps= 16 q=28.0 size=  122112KiB time=00:00:23.46 bitrate=42628.2kbits/s speed=0.264x elapsed=0:01:28.73    frame= 1419 fps= 16 q=27.0 size=  122880KiB time=00:00:23.60 bitrate=42654.0kbits/s speed=0.264x elapsed=0:01:29.25    frame= 1428 fps= 16 q=21.0 size=  123648KiB time=00:00:23.75 bitrate=42649.5kbits/s speed=0.265x elapsed=0:01:29.76    frame= 1436 fps= 16 q=21.0 size=  124416KiB time=00:00:23.88 bitrate=42674.8kbits/s speed=0.265x elapsed=0:01:30.28    frame= 1445 fps= 16 q=25.0 size=  125184KiB time=00:00:24.03 bitrate=42670.2kbits/s speed=0.265x elapsed=0:01:30.80    frame= 1454 fps= 16 q=28.0 size=  125696KiB time=00:00:24.18 bitrate=42579.0kbits/s speed=0.265x elapsed=0:01:31.32    frame= 1462 fps= 16 q=27.0 size=  125952KiB time=00:00:24.31 bitrate=42431.8kbits/s speed=0.265x elapsed=0:01:31.84    frame= 1471 fps= 16 q=26.0 size=  126464KiB time=00:00:24.46 bitrate=42343.1kbits/s speed=0.265x elapsed=0:01:32.35    frame= 1479 fps= 16 q=26.0 size=  126976KiB time=00:00:24.60 bitrate=42284.1kbits/s speed=0.265x elapsed=0:01:32.87    frame= 1488 fps= 16 q=21.0 size=  127488KiB time=00:00:24.75 bitrate=42197.3kbits/s speed=0.265x elapsed=0:01:33.39    frame= 1496 fps= 16 q=21.0 size=  128000KiB time=00:00:24.88 bitrate=42139.7kbits/s speed=0.265x elapsed=0:01:33.90    frame= 1505 fps= 16 q=26.0 size=  129280KiB time=00:00:25.03 bitrate=42306.1kbits/s speed=0.265x elapsed=0:01:34.41    frame= 1513 fps= 16 q=27.0 size=  130048KiB time=00:00:25.16 bitrate=42331.9kbits/s speed=0.265x elapsed=0:01:34.94    frame= 1522 fps= 16 q=19.0 size=  130560KiB time=00:00:25.31 bitrate=42246.8kbits/s speed=0.265x elapsed=0:01:35.44    frame= 1530 fps= 16 q=19.0 size=  131072KiB time=00:00:25.45 bitrate=42190.3kbits/s speed=0.265x elapsed=0:01:35.96    frame= 1539 fps= 16 q=24.0 size=  131840KiB time=00:00:25.60 bitrate=42188.8kbits/s speed=0.265x elapsed=0:01:36.48    frame= 1548 fps= 16 q=27.0 size=  132608KiB time=00:00:25.75 bitrate=42187.4kbits/s speed=0.265x elapsed=0:01:37.00    frame= 1556 fps= 16 q=27.0 size=  133376KiB time=00:00:25.88 bitrate=42213.1kbits/s speed=0.265x elapsed=0:01:37.52    frame= 1564 fps= 16 q=27.0 size=  134144KiB time=00:00:26.01 bitrate=42238.6kbits/s speed=0.265x elapsed=0:01:38.02    frame= 1573 fps= 16 q=27.0 size=  134912KiB time=00:00:26.16 bitrate=42236.9kbits/s speed=0.266x elapsed=0:01:38.54    frame= 1582 fps= 16 q=20.0 size=  135424KiB time=00:00:26.31 bitrate=42155.6kbits/s speed=0.266x elapsed=0:01:39.06    frame= 1590 fps= 16 q=20.0 size=  136192KiB time=00:00:26.45 bitrate=42180.9kbits/s speed=0.266x elapsed=0:01:39.58    frame= 1599 fps= 16 q=24.0 size=  136704KiB time=00:00:26.60 bitrate=42100.7kbits/s speed=0.266x elapsed=0:01:40.10    frame= 1608 fps= 16 q=27.0 size=  137472KiB time=00:00:26.75 bitrate=42099.9kbits/s speed=0.266x elapsed=0:01:40.62    frame= 1616 fps= 16 q=27.0 size=  138240KiB time=00:00:26.88 bitrate=42125.1kbits/s speed=0.266x elapsed=0:01:41.14    frame= 1625 fps= 16 q=27.0 size=  139008KiB time=00:00:27.03 bitrate=42124.1kbits/s speed=0.266x elapsed=0:01:41.65    frame= 1633 fps= 16 q=27.0 size=  139520KiB time=00:00:27.16 bitrate=42071.7kbits/s speed=0.266x elapsed=0:01:42.16    frame= 1642 fps= 16 q=19.0 size=  140288KiB time=00:00:27.31 bitrate=42071.0kbits/s speed=0.266x elapsed=0:01:42.68    frame= 1650 fps= 16 q=19.0 size=  140800KiB time=00:00:27.45 bitrate=42019.5kbits/s speed=0.266x elapsed=0:01:43.20    frame= 1659 fps= 16 q=24.0 size=  141824KiB time=00:00:27.60 bitrate=42095.0kbits/s speed=0.266x elapsed=0:01:43.71    frame= 1668 fps= 16 q=27.0 size=  142336KiB time=00:00:27.75 bitrate=42018.6kbits/s speed=0.266x elapsed=0:01:44.23    frame= 1676 fps= 16 q=27.0 size=  143104KiB time=00:00:27.88 bitrate=42043.3kbits/s speed=0.266x elapsed=0:01:44.75    frame= 1685 fps= 16 q=27.0 size=  143616KiB time=00:00:28.03 bitrate=41968.0kbits/s speed=0.266x elapsed=0:01:45.26    frame= 1693 fps= 16 q=27.0 size=  144128KiB time=00:00:28.16 bitrate=41918.2kbits/s speed=0.266x elapsed=0:01:45.78    frame= 1702 fps= 16 q=19.0 size=  144640KiB time=00:00:28.31 bitrate=41844.3kbits/s speed=0.266x elapsed=0:01:46.30    frame= 1711 fps= 16 q=24.0 size=  145664KiB time=00:00:28.46 bitrate=41918.5kbits/s speed=0.266x elapsed=0:01:46.82    frame= 1719 fps= 16 q=24.0 size=  146176KiB time=00:00:28.60 bitrate=41869.7kbits/s speed=0.266x elapsed=0:01:47.34    frame= 1728 fps= 16 q=27.0 size=  146944KiB time=00:00:28.75 bitrate=41870.1kbits/s speed=0.267x elapsed=0:01:47.86    frame= 1736 fps= 16 q=27.0 size=  147712KiB time=00:00:28.88 bitrate=41894.6kbits/s speed=0.267x elapsed=0:01:48.36    frame= 1745 fps= 16 q=26.0 size=  148480KiB time=00:00:29.03 bitrate=41894.9kbits/s speed=0.267x elapsed=0:01:48.88    frame= 1754 fps= 16 q=26.0 size=  150016KiB time=00:00:29.18 bitrate=42110.7kbits/s speed=0.267x elapsed=0:01:49.41    frame= 1762 fps= 16 q=26.0 size=  150784KiB time=00:00:29.31 bitrate=42133.8kbits/s speed=0.267x elapsed=0:01:49.91    frame= 1771 fps= 16 q=26.0 size=  151296KiB time=00:00:29.46 bitrate=42061.7kbits/s speed=0.267x elapsed=0:01:50.43    frame= 1779 fps= 16 q=26.0 size=  152064KiB time=00:00:29.60 bitrate=42084.8kbits/s speed=0.267x elapsed=0:01:50.95    frame= 1788 fps= 16 q=19.0 size=  152576KiB time=00:00:29.75 bitrate=42013.5kbits/s speed=0.267x elapsed=0:01:51.47    frame= 1796 fps= 16 q=19.0 size=  153088KiB time=00:00:29.88 bitrate=41966.4kbits/s speed=0.267x elapsed=0:01:51.97    frame= 1805 fps= 16 q=23.0 size=  154112KiB time=00:00:30.03 bitrate=42036.2kbits/s speed=0.267x elapsed=0:01:52.49    frame= 1814 fps= 16 q=26.0 size=  154880KiB time=00:00:30.18 bitrate=42035.7kbits/s speed=0.267x elapsed=0:01:53.02    frame= 1822 fps= 16 q=26.0 size=  155648KiB time=00:00:30.31 bitrate=42058.3kbits/s speed=0.267x elapsed=0:01:53.52    frame= 1831 fps= 16 q=26.0 size=  156416KiB time=00:00:30.46 bitrate=42057.8kbits/s speed=0.267x elapsed=0:01:54.04    frame= 1840 fps= 16 q=19.0 size=  156928KiB time=00:00:30.61 bitrate=41988.7kbits/s speed=0.267x elapsed=0:01:54.56    frame= 1848 fps= 16 q=19.0 size=  157696KiB time=00:00:30.75 bitrate=42011.3kbits/s speed=0.267x elapsed=0:01:55.07    frame= 1857 fps= 16 q=23.0 size=  158720KiB time=00:00:30.90 bitrate=42078.8kbits/s speed=0.267x elapsed=0:01:55.58    frame= 1865 fps= 16 q=23.0 size=  159488KiB time=00:00:31.03 bitrate=42100.7kbits/s speed=0.267x elapsed=0:01:56.10    frame= 1874 fps= 16 q=26.0 size=  160000KiB time=00:00:31.18 bitrate=42032.7kbits/s speed=0.267x elapsed=0:01:56.62    frame= 1883 fps= 16 q=26.0 size=  160768KiB time=00:00:31.33 bitrate=42032.3kbits/s speed=0.267x elapsed=0:01:57.14    frame= 1891 fps= 16 q=26.0 size=  161536KiB time=00:00:31.46 bitrate=42054.1kbits/s speed=0.267x elapsed=0:01:57.65    frame= 1900 fps= 16 q=19.0 size=  162048KiB time=00:00:31.61 bitrate=41987.3kbits/s speed=0.268x elapsed=0:01:58.17    frame= 1908 fps= 16 q=19.0 size=  162816KiB time=00:00:31.75 bitrate=42009.1kbits/s speed=0.267x elapsed=0:01:58.69    frame= 1917 fps= 16 q=23.0 size=  163584KiB time=00:00:31.90 bitrate=42008.8kbits/s speed=0.268x elapsed=0:01:59.19    frame= 1925 fps= 16 q=23.0 size=  164352KiB time=00:00:32.03 bitrate=42030.3kbits/s speed=0.268x elapsed=0:01:59.71    frame= 1934 fps= 16 q=26.0 size=  165120KiB time=00:00:32.18 bitrate=42029.9kbits/s speed=0.268x elapsed=0:02:00.23    frame= 1942 fps= 16 q=26.0 size=  165888KiB time=00:00:32.31 bitrate=42051.2kbits/s speed=0.268x elapsed=0:02:00.74    frame= 1951 fps= 16 q=26.0 size=  166656KiB time=00:00:32.46 bitrate=42050.7kbits/s speed=0.268x elapsed=0:02:01.26    frame= 1960 fps= 16 q=19.0 size=  167680KiB time=00:00:32.61 bitrate=42114.5kbits/s speed=0.268x elapsed=0:02:01.78    frame= 1968 fps= 16 q=19.0 size=  168448KiB time=00:00:32.75 bitrate=42135.2kbits/s speed=0.268x elapsed=0:02:02.29    frame= 1977 fps= 16 q=24.0 size=  169472KiB time=00:00:32.90 bitrate=42198.0kbits/s speed=0.268x elapsed=0:02:02.81    frame= 1986 fps= 16 q=26.0 size=  170496KiB time=00:00:33.05 bitrate=42260.3kbits/s speed=0.268x elapsed=0:02:03.33    frame= 1994 fps= 16 q=26.0 size=  171264KiB time=00:00:33.18 bitrate=42280.1kbits/s speed=0.268x elapsed=0:02:03.84    frame= 2003 fps= 16 q=24.0 size=  172800KiB time=00:00:33.33 bitrate=42467.3kbits/s speed=0.268x elapsed=0:02:04.36    frame= 2011 fps= 16 q=24.0 size=  173312KiB time=00:00:33.46 bitrate=42423.5kbits/s speed=0.268x elapsed=0:02:04.86    frame= 2020 fps= 16 q=27.0 size=  174336KiB time=00:00:33.61 bitrate=42483.7kbits/s speed=0.268x elapsed=0:02:05.38    frame= 2029 fps= 16 q=27.0 size=  175104KiB time=00:00:33.76 bitrate=42481.3kbits/s speed=0.268x elapsed=0:02:05.90    frame= 2037 fps= 16 q=27.0 size=  175872KiB time=00:00:33.90 bitrate=42499.8kbits/s speed=0.268x elapsed=0:02:06.41    frame= 2046 fps= 16 q=20.0 size=  176640KiB time=00:00:34.05 bitrate=42497.4kbits/s speed=0.268x elapsed=0:02:06.93    frame= 2054 fps= 16 q=20.0 size=  177408KiB time=00:00:34.18 bitrate=42515.7kbits/s speed=0.268x elapsed=0:02:07.45    frame= 2063 fps= 16 q=24.0 size=  178432KiB time=00:00:34.33 bitrate=42574.2kbits/s speed=0.268x elapsed=0:02:07.96    frame= 2071 fps= 16 q=24.0 size=  179200KiB time=00:00:34.46 bitrate=42592.1kbits/s speed=0.268x elapsed=0:02:08.48    frame= 2080 fps= 16 q=27.0 size=  179968KiB time=00:00:34.61 bitrate=42589.3kbits/s speed=0.268x elapsed=0:02:09.00    frame= 2089 fps= 16 q=27.0 size=  180736KiB time=00:00:34.76 bitrate=42586.5kbits/s speed=0.268x elapsed=0:02:09.50    frame= 2097 fps= 16 q=27.0 size=  181504KiB time=00:00:34.90 bitrate=42604.0kbits/s speed=0.268x elapsed=0:02:10.02    frame= 2106 fps= 16 q=19.0 size=  182016KiB time=00:00:35.05 bitrate=42541.4kbits/s speed=0.268x elapsed=0:02:10.55    frame= 2114 fps= 16 q=19.0 size=  182784KiB time=00:00:35.18 bitrate=42559.0kbits/s speed=0.268x elapsed=0:02:11.05    frame= 2123 fps= 16 q=24.0 size=  183808KiB time=00:00:35.33 bitrate=42615.7kbits/s speed=0.269x elapsed=0:02:11.57    frame= 2132 fps= 16 q=27.0 size=  184576KiB time=00:00:35.48 bitrate=42612.9kbits/s speed=0.269x elapsed=0:02:12.09    frame= 2141 fps= 16 q=27.0 size=  185088KiB time=00:00:35.63 bitrate=42551.2kbits/s speed=0.269x elapsed=0:02:12.61    frame= 2149 fps= 16 q=27.0 size=  185856KiB time=00:00:35.76 bitrate=42568.5kbits/s speed=0.269x elapsed=0:02:13.11    frame= 2158 fps= 16 q=19.0 size=  186624KiB time=00:00:35.91 bitrate=42565.9kbits/s speed=0.269x elapsed=0:02:13.63    frame= 2167 fps= 16 q=24.0 size=  187648KiB time=00:00:36.06 bitrate=42621.4kbits/s speed=0.269x elapsed=0:02:14.15    frame= 2175 fps= 16 q=24.0 size=  188416KiB time=00:00:36.20 bitrate=42638.2kbits/s speed=0.269x elapsed=0:02:14.67    frame= 2184 fps= 16 q=27.0 size=  189184KiB time=00:00:36.35 bitrate=42635.4kbits/s speed=0.269x elapsed=0:02:15.19    frame= 2192 fps= 16 q=27.0 size=  189696KiB time=00:00:36.48 bitrate=42594.5kbits/s speed=0.269x elapsed=0:02:15.69    frame= 2201 fps= 16 q=27.0 size=  190464KiB time=00:00:36.63 bitrate=42591.9kbits/s speed=0.269x elapsed=0:02:16.22    frame= 2210 fps= 16 q=20.0 size=  191232KiB time=00:00:36.78 bitrate=42589.2kbits/s speed=0.269x elapsed=0:02:16.73    frame= 2218 fps= 16 q=19.0 size=  191744KiB time=00:00:36.91 bitrate=42549.0kbits/s speed=0.269x elapsed=0:02:17.24    frame= 2227 fps= 16 q=24.0 size=  193024KiB time=00:00:37.06 bitrate=42659.7kbits/s speed=0.269x elapsed=0:02:17.76    frame= 2236 fps= 16 q=27.0 size=  193792KiB time=00:00:37.21 bitrate=42656.8kbits/s speed=0.269x elapsed=0:02:18.28    frame= 2244 fps= 16 q=27.0 size=  194304KiB time=00:00:37.35 bitrate=42616.8kbits/s speed=0.269x elapsed=0:02:18.80    frame= 2253 fps= 16 q=24.0 size=  195840KiB time=00:00:37.50 bitrate=42781.9kbits/s speed=0.269x elapsed=0:02:19.30    frame= 2262 fps= 16 q=27.0 size=  196608KiB time=00:00:37.65 bitrate=42778.6kbits/s speed=0.269x elapsed=0:02:19.83    frame= 2270 fps= 16 q=27.0 size=  197376KiB time=00:00:37.78 bitrate=42794.1kbits/s speed=0.269x elapsed=0:02:20.33    frame= 2279 fps= 16 q=27.0 size=  197888KiB time=00:00:37.93 bitrate=42735.5kbits/s speed=0.269x elapsed=0:02:20.85    frame= 2288 fps= 16 q=20.0 size=  198912KiB time=00:00:38.08 bitrate=42787.4kbits/s speed=0.269x elapsed=0:02:21.37    frame= 2296 fps= 16 q=20.0 size=  199424KiB time=00:00:38.21 bitrate=42747.9kbits/s speed=0.269x elapsed=0:02:21.89    frame= 2305 fps= 16 q=24.0 size=  200448KiB time=00:00:38.36 bitrate=42799.4kbits/s speed=0.269x elapsed=0:02:22.39    frame= 2313 fps= 16 q=24.0 size=  201216KiB time=00:00:38.50 bitrate=42814.6kbits/s speed=0.269x elapsed=0:02:22.91    frame= 2322 fps= 16 q=27.0 size=  201984KiB time=00:00:38.65 bitrate=42811.2kbits/s speed=0.269x elapsed=0:02:23.43    frame= 2331 fps= 16 q=27.0 size=  202496KiB time=00:00:38.80 bitrate=42753.8kbits/s speed=0.27x elapsed=0:02:23.95    frame= 2339 fps= 16 q=27.0 size=  203264KiB time=00:00:38.93 bitrate=42769.0kbits/s speed=0.27x elapsed=0:02:24.46    frame= 2348 fps= 16 q=20.0 size=  204032KiB time=00:00:39.08 bitrate=42765.8kbits/s speed=0.27x elapsed=0:02:24.98    frame= 2357 fps= 16 q=24.0 size=  204800KiB time=00:00:39.23 bitrate=42762.7kbits/s speed=0.27x elapsed=0:02:25.50    frame= 2365 fps= 16 q=24.0 size=  205568KiB time=00:00:39.36 bitrate=42777.6kbits/s speed=0.27x elapsed=0:02:26.00    frame= 2374 fps= 16 q=27.0 size=  206336KiB time=00:00:39.51 bitrate=42774.5kbits/s speed=0.27x elapsed=0:02:26.52    frame= 2383 fps= 16 q=27.0 size=  207104KiB time=00:00:39.66 bitrate=42771.3kbits/s speed=0.27x elapsed=0:02:27.04    frame= 2391 fps= 16 q=27.0 size=  207872KiB time=00:00:39.80 bitrate=42786.1kbits/s speed=0.27x elapsed=0:02:27.56    frame= 2400 fps= 16 q=20.0 size=  208640KiB time=00:00:39.95 bitrate=42783.0kbits/s speed=0.27x elapsed=0:02:28.07    frame= 2408 fps= 16 q=20.0 size=  209152KiB time=00:00:40.08 bitrate=42745.3kbits/s speed=0.27x elapsed=0:02:28.59    frame= 2416 fps= 16 q=20.0 size=  209920KiB time=00:00:40.21 bitrate=42760.0kbits/s speed=0.27x elapsed=0:02:29.11    frame= 2425 fps= 16 q=24.0 size=  210944KiB time=00:00:40.36 bitrate=42808.9kbits/s speed=0.27x elapsed=0:02:29.62    frame= 2433 fps= 16 q=24.0 size=  211712KiB time=00:00:40.50 bitrate=42823.3kbits/s speed=0.27x elapsed=0:02:30.13    frame= 2442 fps= 16 q=27.0 size=  212224KiB time=00:00:40.65 bitrate=42768.5kbits/s speed=0.27x elapsed=0:02:30.65    frame= 2451 fps= 16 q=27.0 size=  212992KiB time=00:00:40.80 bitrate=42765.5kbits/s speed=0.27x elapsed=0:02:31.17    frame= 2459 fps= 16 q=27.0 size=  213760KiB time=00:00:40.93 bitrate=42779.9kbits/s speed=0.27x elapsed=0:02:31.68    frame= 2468 fps= 16 q=20.0 size=  214528KiB time=00:00:41.08 bitrate=42776.8kbits/s speed=0.27x elapsed=0:02:32.20    frame= 2477 fps= 16 q=25.0 size=  215552KiB time=00:00:41.23 bitrate=42824.6kbits/s speed=0.27x elapsed=0:02:32.72    frame= 2485 fps= 16 q=25.0 size=  216320KiB time=00:00:41.36 bitrate=42838.7kbits/s speed=0.27x elapsed=0:02:33.24    frame= 2494 fps= 16 q=28.0 size=  216832KiB time=00:00:41.51 bitrate=42784.9kbits/s speed=0.27x elapsed=0:02:33.74    frame= 2503 fps= 16 q=25.0 size=  218368KiB time=00:00:41.66 bitrate=42932.9kbits/s speed=0.27x elapsed=0:02:34.26    frame= 2511 fps= 16 q=25.0 size=  218880KiB time=00:00:41.80 bitrate=42896.3kbits/s speed=0.27x elapsed=0:02:34.78    frame= 2520 fps= 16 q=28.0 size=  219392KiB time=00:00:41.95 bitrate=42842.9kbits/s speed=0.27x elapsed=0:02:35.29    frame= 2528 fps= 16 q=28.0 size=  220160KiB time=00:00:42.08 bitrate=42856.7kbits/s speed=0.27x elapsed=0:02:35.81    frame= 2537 fps= 16 q=28.0 size=  220672KiB time=00:00:42.23 bitrate=42803.8kbits/s speed=0.27x elapsed=0:02:36.32    frame= 2546 fps= 16 q=20.0 size=  221184KiB time=00:00:42.38 bitrate=42751.2kbits/s speed=0.27x elapsed=0:02:36.84    frame= 2554 fps= 16 q=20.0 size=  221696KiB time=00:00:42.51 bitrate=42715.8kbits/s speed=0.27x elapsed=0:02:37.35    frame= 2563 fps= 16 q=25.0 size=  222464KiB time=00:00:42.66 bitrate=42713.1kbits/s speed=0.27x elapsed=0:02:37.87    frame= 2572 fps= 16 q=28.0 size=  222976KiB time=00:00:42.81 bitrate=42661.4kbits/s speed=0.27x elapsed=0:02:38.39    frame= 2580 fps= 16 q=27.0 size=  223488KiB time=00:00:42.95 bitrate=42626.6kbits/s speed=0.27x elapsed=0:02:38.89    frame= 2589 fps= 16 q=27.0 size=  224000KiB time=00:00:43.10 bitrate=42575.6kbits/s speed=0.27x elapsed=0:02:39.41    frame= 2598 fps= 16 q=20.0 size=  224512KiB time=00:00:43.25 bitrate=42524.9kbits/s speed=0.27x elapsed=0:02:39.93    frame= 2606 fps= 16 q=20.0 size=  225024KiB time=00:00:43.38 bitrate=42490.9kbits/s speed=0.27x elapsed=0:02:40.45    frame= 2615 fps= 16 q=24.0 size=  225792KiB time=00:00:43.53 bitrate=42489.0kbits/s speed=0.27x elapsed=0:02:40.96    frame= 2623 fps= 16 q=24.0 size=  226304KiB time=00:00:43.66 bitrate=42455.3kbits/s speed=0.27x elapsed=0:02:41.48    frame= 2632 fps= 16 q=27.0 size=  226816KiB time=00:00:43.81 bitrate=42405.7kbits/s speed=0.27x elapsed=0:02:42.00    frame= 2641 fps= 16 q=27.0 size=  227328KiB time=00:00:43.96 bitrate=42356.4kbits/s speed=0.271x elapsed=0:02:42.52    frame= 2649 fps= 16 q=26.0 size=  227840KiB time=00:00:44.10 bitrate=42323.5kbits/s speed=0.271x elapsed=0:02:43.02    frame= 2658 fps= 16 q=20.0 size=  228352KiB time=00:00:44.25 bitrate=42274.8kbits/s speed=0.271x elapsed=0:02:43.54    frame= 2667 fps= 16 q=24.0 size=  229120KiB time=00:00:44.40 bitrate=42273.7kbits/s speed=0.271x elapsed=0:02:44.06    frame= 2675 fps= 16 q=24.0 size=  229632KiB time=00:00:44.53 bitrate=42241.3kbits/s speed=0.271x elapsed=0:02:44.57    frame= 2684 fps= 16 q=27.0 size=  230144KiB time=00:00:44.68 bitrate=42193.4kbits/s speed=0.271x elapsed=0:02:45.09    frame= 2693 fps= 16 q=26.0 size=  230656KiB time=00:00:44.83 bitrate=42145.7kbits/s speed=0.271x elapsed=0:02:45.61    frame= 2701 fps= 16 q=26.0 size=  231424KiB time=00:00:44.96 bitrate=42160.7kbits/s speed=0.271x elapsed=0:02:46.11    frame= 2710 fps= 16 q=20.0 size=  231936KiB time=00:00:45.11 bitrate=42113.5kbits/s speed=0.271x elapsed=0:02:46.64    frame= 2719 fps= 16 q=24.0 size=  232704KiB time=00:00:45.26 bitrate=42112.9kbits/s speed=0.271x elapsed=0:02:47.16    frame= 2727 fps= 16 q=24.0 size=  233472KiB time=00:00:45.40 bitrate=42127.8kbits/s speed=0.271x elapsed=0:02:47.66    frame= 2736 fps= 16 q=27.0 size=  233984KiB time=00:00:45.55 bitrate=42081.2kbits/s speed=0.271x elapsed=0:02:48.18    frame= 2745 fps= 16 q=27.0 size=  234496KiB time=00:00:45.70 bitrate=42034.8kbits/s speed=0.271x elapsed=0:02:48.70    frame= 2753 fps= 16 q=24.0 size=  236288KiB time=00:00:45.83 bitrate=42232.8kbits/s speed=0.271x elapsed=0:02:49.22    frame= 2762 fps= 16 q=27.0 size=  236800KiB time=00:00:45.98 bitrate=42186.3kbits/s speed=0.271x elapsed=0:02:49.72    frame= 2771 fps= 16 q=27.0 size=  237568KiB time=00:00:46.13 bitrate=42185.5kbits/s speed=0.271x elapsed=0:02:50.24    frame= 2779 fps= 16 q=27.0 size=  238080KiB time=00:00:46.26 bitrate=42154.6kbits/s speed=0.271x elapsed=0:02:50.76    frame= 2788 fps= 16 q=20.0 size=  238592KiB time=00:00:46.41 bitrate=42108.7kbits/s speed=0.271x elapsed=0:02:51.28    frame= 2797 fps= 16 q=24.0 size=  239360KiB time=00:00:46.56 bitrate=42108.2kbits/s speed=0.271x elapsed=0:02:51.79    frame= 2805 fps= 16 q=24.0 size=  239872KiB time=00:00:46.70 bitrate=42077.8kbits/s speed=0.271x elapsed=0:02:52.30    frame= 2814 fps= 16 q=26.0 size=  240384KiB time=00:00:46.85 bitrate=42032.6kbits/s speed=0.271x elapsed=0:02:52.82    frame= 2823 fps= 16 q=26.0 size=  240896KiB time=00:00:47.00 bitrate=41987.7kbits/s speed=0.271x elapsed=0:02:53.34    frame= 2831 fps= 16 q=26.0 size=  241664KiB time=00:00:47.13 bitrate=42002.4kbits/s speed=0.271x elapsed=0:02:53.85    frame= 2840 fps= 16 q=20.0 size=  242176KiB time=00:00:47.28 bitrate=41957.8kbits/s speed=0.271x elapsed=0:02:54.37    frame= 2849 fps= 16 q=24.0 size=  242944KiB time=00:00:47.43 bitrate=41957.8kbits/s speed=0.271x elapsed=0:02:54.89    frame= 2857 fps= 16 q=24.0 size=  243712KiB time=00:00:47.56 bitrate=41972.4kbits/s speed=0.271x elapsed=0:02:55.41    frame= 2866 fps= 16 q=27.0 size=  244224KiB time=00:00:47.71 bitrate=41928.4kbits/s speed=0.271x elapsed=0:02:55.91    frame= 2874 fps= 16 q=27.0 size=  244736KiB time=00:00:47.85 bitrate=41899.2kbits/s speed=0.271x elapsed=0:02:56.43    frame= 2883 fps= 16 q=26.0 size=  245504KiB time=00:00:48.00 bitrate=41899.4kbits/s speed=0.271x elapsed=0:02:56.95    frame= 2892 fps= 16 q=19.0 size=  246016KiB time=00:00:48.15 bitrate=41855.9kbits/s speed=0.271x elapsed=0:02:57.47    frame= 2900 fps= 16 q=19.0 size=  246784KiB time=00:00:48.28 bitrate=41870.7kbits/s speed=0.271x elapsed=0:02:57.97    frame= 2909 fps= 16 q=24.0 size=  247808KiB time=00:00:48.43 bitrate=41914.2kbits/s speed=0.271x elapsed=0:02:58.49    frame= 2918 fps= 16 q=27.0 size=  248320KiB time=00:00:48.58 bitrate=41871.1kbits/s speed=0.271x elapsed=0:02:59.02    frame= 2926 fps= 16 q=27.0 size=  249088KiB time=00:00:48.71 bitrate=41885.7kbits/s speed=0.271x elapsed=0:02:59.52    frame= 2935 fps= 16 q=27.0 size=  249600KiB time=00:00:48.86 bitrate=41842.9kbits/s speed=0.271x elapsed=0:03:00.04    frame= 2944 fps= 16 q=20.0 size=  250368KiB time=00:00:49.01 bitrate=41843.2kbits/s speed=0.271x elapsed=0:03:00.56    frame= 2952 fps= 16 q=20.0 size=  251136KiB time=00:00:49.15 bitrate=41857.7kbits/s speed=0.271x elapsed=0:03:01.07    frame= 2961 fps= 16 q=24.0 size=  251904KiB time=00:00:49.30 bitrate=41858.0kbits/s speed=0.271x elapsed=0:03:01.59    frame= 2970 fps= 16 q=27.0 size=  252672KiB time=00:00:49.45 bitrate=41858.2kbits/s speed=0.272x elapsed=0:03:02.11    frame= 2979 fps= 16 q=27.0 size=  253440KiB time=00:00:49.60 bitrate=41858.5kbits/s speed=0.272x elapsed=0:03:02.63    frame= 2987 fps= 16 q=27.0 size=  254208KiB time=00:00:49.73 bitrate=41872.8kbits/s speed=0.272x elapsed=0:03:03.13    frame= 2996 fps= 16 q=20.0 size=  254976KiB time=00:00:49.88 bitrate=41873.0kbits/s speed=0.272x elapsed=0:03:03.65    frame= 3005 fps= 16 q=28.0 size=  256768KiB time=00:00:50.03 bitrate=42040.8kbits/s speed=0.272x elapsed=0:03:04.18    frame= 3013 fps= 16 q=27.0 size=  257536KiB time=00:00:50.16 bitrate=42054.5kbits/s speed=0.272x elapsed=0:03:04.69    frame= 3022 fps= 16 q=20.0 size=  258048KiB time=00:00:50.31 bitrate=42012.5kbits/s speed=0.272x elapsed=0:03:05.21    frame= 3031 fps= 16 q=24.0 size=  259072KiB time=00:00:50.46 bitrate=42053.9kbits/s speed=0.272x elapsed=0:03:05.73    frame= 3039 fps= 16 q=24.0 size=  259584KiB time=00:00:50.60 bitrate=42025.9kbits/s speed=0.272x elapsed=0:03:06.24    frame= 3048 fps= 16 q=27.0 size=  260096KiB time=00:00:50.75 bitrate=41984.4kbits/s speed=0.272x elapsed=0:03:06.76    frame= 3057 fps= 16 q=27.0 size=  260608KiB time=00:00:50.90 bitrate=41943.0kbits/s speed=0.272x elapsed=0:03:07.28    frame= 3065 fps= 16 q=27.0 size=  261376KiB time=00:00:51.03 bitrate=41956.7kbits/s speed=0.272x elapsed=0:03:07.78    frame= 3074 fps= 16 q=20.0 size=  261888KiB time=00:00:51.18 bitrate=41915.7kbits/s speed=0.272x elapsed=0:03:08.31    frame= 3083 fps= 16 q=24.0 size=  262912KiB time=00:00:51.33 bitrate=41956.7kbits/s speed=0.272x elapsed=0:03:08.83    frame= 3091 fps= 16 q=24.0 size=  263424KiB time=00:00:51.46 bitrate=41929.5kbits/s speed=0.272x elapsed=0:03:09.34    frame= 3100 fps= 16 q=27.0 size=  263936KiB time=00:00:51.61 bitrate=41888.9kbits/s speed=0.272x elapsed=0:03:09.85    frame= 3109 fps= 16 q=26.0 size=  264704KiB time=00:00:51.76 bitrate=41889.0kbits/s speed=0.272x elapsed=0:03:10.37    frame= 3117 fps= 16 q=26.0 size=  265216KiB time=00:00:51.90 bitrate=41862.2kbits/s speed=0.272x elapsed=0:03:10.89    frame= 3126 fps= 16 q=19.0 size=  265984KiB time=00:00:52.05 bitrate=41862.5kbits/s speed=0.272x elapsed=0:03:11.40    frame= 3135 fps= 16 q=24.0 size=  267008KiB time=00:00:52.20 bitrate=41902.9kbits/s speed=0.272x elapsed=0:03:11.92    frame= 3143 fps= 16 q=24.0 size=  267520KiB time=00:00:52.33 bitrate=41876.3kbits/s speed=0.272x elapsed=0:03:12.44    frame= 3152 fps= 16 q=27.0 size=  268288KiB time=00:00:52.48 bitrate=41876.5kbits/s speed=0.272x elapsed=0:03:12.94    frame= 3161 fps= 16 q=27.0 size=  269056KiB time=00:00:52.63 bitrate=41876.6kbits/s speed=0.272x elapsed=0:03:13.46    frame= 3169 fps= 16 q=27.0 size=  269824KiB time=00:00:52.76 bitrate=41890.1kbits/s speed=0.272x elapsed=0:03:13.98    frame= 3178 fps= 16 q=20.0 size=  270336KiB time=00:00:52.91 bitrate=41850.6kbits/s speed=0.272x elapsed=0:03:14.49    frame= 3186 fps= 16 q=24.0 size=  271104KiB time=00:00:53.06 bitrate=41850.8kbits/s speed=0.272x elapsed=0:03:15.00    frame= 3195 fps= 16 q=24.0 size=  271872KiB time=00:00:53.20 bitrate=41864.2kbits/s speed=0.272x elapsed=0:03:15.52    frame= 3204 fps= 16 q=26.0 size=  272640KiB time=00:00:53.35 bitrate=41864.4kbits/s speed=0.272x elapsed=0:03:16.04    frame= 3213 fps= 16 q=26.0 size=  273152KiB time=00:00:53.50 bitrate=41825.4kbits/s speed=0.272x elapsed=0:03:16.56    frame= 3221 fps= 16 q=26.0 size=  273920KiB time=00:00:53.63 bitrate=41838.8kbits/s speed=0.272x elapsed=0:03:17.07    frame= 3230 fps= 16 q=20.0 size=  274432KiB time=00:00:53.78 bitrate=41800.1kbits/s speed=0.272x elapsed=0:03:17.59    frame= 3239 fps= 16 q=24.0 size=  275200KiB time=00:00:53.93 bitrate=41800.5kbits/s speed=0.272x elapsed=0:03:18.11    frame= 3248 fps= 16 q=26.0 size=  275968KiB time=00:00:54.08 bitrate=41800.9kbits/s speed=0.272x elapsed=0:03:18.63    frame= 3256 fps= 16 q=20.0 size=  277504KiB time=00:00:54.21 bitrate=41930.2kbits/s speed=0.272x elapsed=0:03:19.13    frame= 3265 fps= 16 q=24.0 size=  278272KiB time=00:00:54.36 bitrate=41930.2kbits/s speed=0.272x elapsed=0:03:19.65    frame= 3274 fps= 16 q=27.0 size=  279040KiB time=00:00:54.51 bitrate=41930.2kbits/s speed=0.272x elapsed=0:03:20.17    frame= 3282 fps= 16 q=27.0 size=  279552KiB time=00:00:54.65 bitrate=41904.7kbits/s speed=0.272x elapsed=0:03:20.68    frame= 3291 fps= 16 q=27.0 size=  280320KiB time=00:00:54.80 bitrate=41904.8kbits/s speed=0.272x elapsed=0:03:21.20    frame= 3300 fps= 16 q=20.0 size=  281088KiB time=00:00:54.95 bitrate=41904.9kbits/s speed=0.272x elapsed=0:03:21.72    frame= 3308 fps= 16 q=20.0 size=  281856KiB time=00:00:55.08 bitrate=41917.7kbits/s speed=0.272x elapsed=0:03:22.24    frame= 3317 fps= 16 q=24.0 size=  283136KiB time=00:00:55.23 bitrate=41993.7kbits/s speed=0.272x elapsed=0:03:22.74    frame= 3326 fps= 16 q=27.0 size=  283904KiB time=00:00:55.38 bitrate=41993.5kbits/s speed=0.272x elapsed=0:03:23.26    frame= 3334 fps= 16 q=27.0 size=  284672KiB time=00:00:55.51 bitrate=42006.0kbits/s speed=0.272x elapsed=0:03:23.78    frame= 3343 fps= 16 q=27.0 size=  285440KiB time=00:00:55.66 bitrate=42005.8kbits/s speed=0.272x elapsed=0:03:24.29    frame= 3352 fps= 16 q=20.0 size=  286208KiB time=00:00:55.81 bitrate=42005.7kbits/s speed=0.273x elapsed=0:03:24.81    frame= 3360 fps= 16 q=20.0 size=  287488KiB time=00:00:55.95 bitrate=42093.0kbits/s speed=0.272x elapsed=0:03:25.33    frame= 3369 fps= 16 q=25.0 size=  289280KiB time=00:00:56.10 bitrate=42242.1kbits/s speed=0.273x elapsed=0:03:25.83    frame= 3378 fps= 16 q=27.0 size=  290816KiB time=00:00:56.25 bitrate=42353.2kbits/s speed=0.273x elapsed=0:03:26.35    frame= 3386 fps= 16 q=27.0 size=  291840KiB time=00:00:56.38 bitrate=42401.8kbits/s speed=0.273x elapsed=0:03:26.87    frame= 3395 fps= 16 q=28.0 size=  292352KiB time=00:00:56.53 bitrate=42363.5kbits/s speed=0.273x elapsed=0:03:27.39    frame= 3404 fps= 16 q=20.0 size=  292608KiB time=00:00:56.68 bitrate=42288.4kbits/s speed=0.273x elapsed=0:03:27.90    frame= 3413 fps= 16 q=25.0 size=  293376KiB time=00:00:56.83 bitrate=42287.4kbits/s speed=0.273x elapsed=0:03:28.42    frame= 3421 fps= 16 q=24.0 size=  293632KiB time=00:00:56.96 bitrate=42225.3kbits/s speed=0.273x elapsed=0:03:28.94    frame= 3430 fps= 16 q=27.0 size=  294400KiB time=00:00:57.11 bitrate=42224.5kbits/s speed=0.273x elapsed=0:03:29.46    frame= 3439 fps= 16 q=27.0 size=  295168KiB time=00:00:57.26 bitrate=42223.8kbits/s speed=0.273x elapsed=0:03:29.96    frame= 3447 fps= 16 q=27.0 size=  295680KiB time=00:00:57.40 bitrate=42198.8kbits/s speed=0.273x elapsed=0:03:30.48    frame= 3456 fps= 16 q=21.0 size=  296192KiB time=00:00:57.55 bitrate=42161.7kbits/s speed=0.273x elapsed=0:03:30.99    frame= 3465 fps= 16 q=24.0 size=  296960KiB time=00:00:57.70 bitrate=42161.1kbits/s speed=0.273x elapsed=0:03:31.51    frame= 3473 fps= 16 q=23.0 size=  297472KiB time=00:00:57.83 bitrate=42136.4kbits/s speed=0.273x elapsed=0:03:32.03    frame= 3482 fps= 16 q=26.0 size=  297984KiB time=00:00:57.98 bitrate=42099.8kbits/s speed=0.273x elapsed=0:03:32.55    frame= 3491 fps= 16 q=26.0 size=  298752KiB time=00:00:58.13 bitrate=42099.4kbits/s speed=0.273x elapsed=0:03:33.05    frame= 3499 fps= 16 q=26.0 size=  299264KiB time=00:00:58.26 bitrate=42075.0kbits/s speed=0.273x elapsed=0:03:33.57    frame= 3508 fps= 16 q=26.0 size=  300800KiB time=00:00:58.41 bitrate=42182.4kbits/s speed=0.273x elapsed=0:03:34.09    frame= 3517 fps= 16 q=26.0 size=  301824KiB time=00:00:58.56 bitrate=42217.6kbits/s speed=0.273x elapsed=0:03:34.60    frame= 3525 fps= 16 q=26.0 size=  302592KiB time=00:00:58.70 bitrate=42228.9kbits/s speed=0.273x elapsed=0:03:35.12    frame= 3534 fps= 16 q=19.0 size=  303104KiB time=00:00:58.85 bitrate=42192.5kbits/s speed=0.273x elapsed=0:03:35.64    frame= 3543 fps= 16 q=23.0 size=  304128KiB time=00:00:59.00 bitrate=42227.4kbits/s speed=0.273x elapsed=0:03:36.16    frame= 3552 fps= 16 q=26.0 size=  304896KiB time=00:00:59.15 bitrate=42226.7kbits/s speed=0.273x elapsed=0:03:36.67    frame= 3560 fps= 16 q=26.0 size=  305664KiB time=00:00:59.28 bitrate=42237.8kbits/s speed=0.273x elapsed=0:03:37.18    frame= 3569 fps= 16 q=26.0 size=  306432KiB time=00:00:59.43 bitrate=42237.1kbits/s speed=0.273x elapsed=0:03:37.69    frame= 3578 fps= 16 q=19.0 size=  307200KiB time=00:00:59.58 bitrate=42236.4kbits/s speed=0.273x elapsed=0:03:38.22    frame= 3586 fps= 16 q=19.0 size=  307968KiB time=00:00:59.71 bitrate=42247.4kbits/s speed=0.273x elapsed=0:03:38.74    frame= 3595 fps= 16 q=23.0 size=  308992KiB time=00:00:59.86 bitrate=42281.7kbits/s speed=0.273x elapsed=0:03:39.24    frame= 3604 fps= 16 q=26.0 size=  309760KiB time=00:01:00.01 bitrate=42280.8kbits/s speed=0.273x elapsed=0:03:39.76    frame= 3612 fps= 16 q=26.0 size=  310528KiB time=00:01:00.15 bitrate=42291.7kbits/s speed=0.273x elapsed=0:03:40.27    frame= 3621 fps= 16 q=26.0 size=  311296KiB time=00:01:00.30 bitrate=42290.8kbits/s speed=0.273x elapsed=0:03:40.79    frame= 3630 fps= 16 q=19.0 size=  312064KiB time=00:01:00.45 bitrate=42290.0kbits/s speed=0.273x elapsed=0:03:41.31    frame= 3638 fps= 16 q=19.0 size=  312832KiB time=00:01:00.58 bitrate=42300.7kbits/s speed=0.273x elapsed=0:03:41.82    frame= 3647 fps= 16 q=24.0 size=  313856KiB time=00:01:00.73 bitrate=42334.4kbits/s speed=0.273x elapsed=0:03:42.33    frame= 3656 fps= 16 q=26.0 size=  314880KiB time=00:01:00.88 bitrate=42367.9kbits/s speed=0.273x elapsed=0:03:42.85    frame= 3664 fps= 16 q=26.0 size=  315648KiB time=00:01:01.01 bitrate=42378.4kbits/s speed=0.273x elapsed=0:03:43.37    frame= 3673 fps= 16 q=26.0 size=  316416KiB time=00:01:01.16 bitrate=42377.3kbits/s speed=0.273x elapsed=0:03:43.88    frame= 3682 fps= 16 q=20.0 size=  317184KiB time=00:01:01.31 bitrate=42376.3kbits/s speed=0.273x elapsed=0:03:44.40    frame= 3691 fps= 16 q=24.0 size=  317952KiB time=00:01:01.46 bitrate=42375.2kbits/s speed=0.273x elapsed=0:03:44.92    frame= 3699 fps= 16 q=24.0 size=  318720KiB time=00:01:01.60 bitrate=42385.6kbits/s speed=0.273x elapsed=0:03:45.44    frame= 3708 fps= 16 q=27.0 size=  319232KiB time=00:01:01.75 bitrate=42350.6kbits/s speed=0.273x elapsed=0:03:45.95    frame= 3716 fps= 16 q=27.0 size=  320000KiB time=00:01:01.88 bitrate=42361.0kbits/s speed=0.273x elapsed=0:03:46.46    frame= 3725 fps= 16 q=27.0 size=  320768KiB time=00:01:02.03 bitrate=42360.0kbits/s speed=0.273x elapsed=0:03:46.98    frame= 3734 fps= 16 q=20.0 size=  321536KiB time=00:01:02.18 bitrate=42359.0kbits/s speed=0.273x elapsed=0:03:47.50    frame= 3743 fps= 16 q=24.0 size=  322560KiB time=00:01:02.33 bitrate=42391.6kbits/s speed=0.273x elapsed=0:03:48.01    frame= 3751 fps= 16 q=20.0 size=  323328KiB time=00:01:02.46 bitrate=42401.9kbits/s speed=0.273x elapsed=0:03:48.53    frame= 3760 fps= 16 q=20.0 size=  324352KiB time=00:01:02.61 bitrate=42434.3kbits/s speed=0.273x elapsed=0:03:49.04    frame= 3769 fps= 16 q=23.0 size=  325376KiB time=00:01:02.76 bitrate=42466.5kbits/s speed=0.273x elapsed=0:03:49.56    frame= 3777 fps= 16 q=23.0 size=  326144KiB time=00:01:02.90 bitrate=42476.5kbits/s speed=0.273x elapsed=0:03:50.07    frame= 3786 fps= 16 q=26.0 size=  327168KiB time=00:01:03.05 bitrate=42508.5kbits/s speed=0.273x elapsed=0:03:50.59    frame= 3795 fps= 16 q=26.0 size=  327936KiB time=00:01:03.20 bitrate=42507.2kbits/s speed=0.273x elapsed=0:03:51.10    frame= 3803 fps= 16 q=26.0 size=  328704KiB time=00:01:03.33 bitrate=42517.0kbits/s speed=0.273x elapsed=0:03:51.62    frame= 3812 fps= 16 q=20.0 size=  329472KiB time=00:01:03.48 bitrate=42515.6kbits/s speed=0.273x elapsed=0:03:52.14    frame= 3821 fps= 16 q=24.0 size=  330752KiB time=00:01:03.63 bitrate=42580.2kbits/s speed=0.274x elapsed=0:03:52.66    frame= 3830 fps= 16 q=26.0 size=  331776KiB time=00:01:03.78 bitrate=42611.6kbits/s speed=0.274x elapsed=0:03:53.16    frame= 3838 fps= 16 q=26.0 size=  332544KiB time=00:01:03.91 bitrate=42621.1kbits/s speed=0.274x elapsed=0:03:53.68    frame= 3847 fps= 16 q=26.0 size=  333312KiB time=00:01:04.06 bitrate=42619.5kbits/s speed=0.274x elapsed=0:03:54.20    frame= 3856 fps= 16 q=20.0 size=  333824KiB time=00:01:04.21 bitrate=42585.3kbits/s speed=0.274x elapsed=0:03:54.72    frame= 3864 fps= 16 q=20.0 size=  334592KiB time=00:01:04.35 bitrate=42594.8kbits/s speed=0.274x elapsed=0:03:55.23    frame= 3873 fps= 16 q=23.0 size=  335616KiB time=00:01:04.50 bitrate=42625.8kbits/s speed=0.274x elapsed=0:03:55.75    frame= 3882 fps= 16 q=26.0 size=  336384KiB time=00:01:04.65 bitrate=42624.3kbits/s speed=0.274x elapsed=0:03:56.27    frame= 3890 fps= 16 q=26.0 size=  337408KiB time=00:01:04.78 bitrate=42666.0kbits/s speed=0.274x elapsed=0:03:56.77    frame= 3899 fps= 16 q=27.0 size=  338176KiB time=00:01:04.93 bitrate=42664.3kbits/s speed=0.274x elapsed=0:03:57.29    frame= 3907 fps= 16 q=27.0 size=  339200KiB time=00:01:05.06 bitrate=42705.8kbits/s speed=0.274x elapsed=0:03:57.81    frame= 3916 fps= 16 q=21.0 size=  339968KiB time=00:01:05.21 bitrate=42704.1kbits/s speed=0.274x elapsed=0:03:58.32    frame= 3925 fps= 16 q=24.0 size=  340992KiB time=00:01:05.36 bitrate=42734.4kbits/s speed=0.274x elapsed=0:03:58.84    frame= 3934 fps= 16 q=27.0 size=  341760KiB time=00:01:05.51 bitrate=42732.6kbits/s speed=0.274x elapsed=0:03:59.36    frame= 3942 fps= 16 q=27.0 size=  342272KiB time=00:01:05.65 bitrate=42709.7kbits/s speed=0.274x elapsed=0:03:59.87    frame= 3951 fps= 16 q=27.0 size=  343296KiB time=00:01:05.80 bitrate=42739.8kbits/s speed=0.274x elapsed=0:04:00.39    frame= 3960 fps= 16 q=21.0 size=  344064KiB time=00:01:05.95 bitrate=42738.0kbits/s speed=0.274x elapsed=0:04:00.91    frame= 3968 fps= 16 q=21.0 size=  345088KiB time=00:01:06.08 bitrate=42778.7kbits/s speed=0.274x elapsed=0:04:01.41    frame= 3977 fps= 16 q=24.0 size=  346112KiB time=00:01:06.23 bitrate=42808.5kbits/s speed=0.274x elapsed=0:04:01.93    frame= 3986 fps= 16 q=27.0 size=  346880KiB time=00:01:06.38 bitrate=42806.5kbits/s speed=0.274x elapsed=0:04:02.45    frame= 3994 fps= 16 q=27.0 size=  347648KiB time=00:01:06.51 bitrate=42815.3kbits/s speed=0.274x elapsed=0:04:02.97    frame= 4003 fps= 16 q=24.0 size=  348928KiB time=00:01:06.66 bitrate=42876.3kbits/s speed=0.274x elapsed=0:04:03.49    frame= 4012 fps= 16 q=26.0 size=  349440KiB time=00:01:06.81 bitrate=42842.8kbits/s speed=0.274x elapsed=0:04:04.01    frame= 4021 fps= 16 q=26.0 size=  350208KiB time=00:01:06.96 bitrate=42840.8kbits/s speed=0.274x elapsed=0:04:04.53    frame= 4029 fps= 16 q=26.0 size=  350976KiB time=00:01:07.10 bitrate=42849.4kbits/s speed=0.274x elapsed=0:04:05.04    frame= 4038 fps= 16 q=21.0 size=  351744KiB time=00:01:07.25 bitrate=42847.4kbits/s speed=0.274x elapsed=0:04:05.56    frame= 4047 fps= 16 q=24.0 size=  352768KiB time=00:01:07.40 bitrate=42876.5kbits/s speed=0.274x elapsed=0:04:06.08    frame= 4055 fps= 16 q=24.0 size=  353792KiB time=00:01:07.53 bitrate=42916.1kbits/s speed=0.274x elapsed=0:04:06.58    frame= 4064 fps= 16 q=27.0 size=  354816KiB time=00:01:07.68 bitrate=42944.9kbits/s speed=0.274x elapsed=0:04:07.10    frame= 4073 fps= 16 q=27.0 size=  355584KiB time=00:01:07.83 bitrate=42942.7kbits/s speed=0.274x elapsed=0:04:07.62    frame= 4081 fps= 16 q=27.0 size=  356352KiB time=00:01:07.96 bitrate=42951.0kbits/s speed=0.274x elapsed=0:04:08.14    frame= 4090 fps= 16 q=21.0 size=  356864KiB time=00:01:08.11 bitrate=42918.0kbits/s speed=0.274x elapsed=0:04:08.65    frame= 4098 fps= 16 q=21.0 size=  357632KiB time=00:01:08.25 bitrate=42926.3kbits/s speed=0.274x elapsed=0:04:09.17    frame= 4107 fps= 16 q=24.0 size=  358656KiB time=00:01:08.40 bitrate=42954.8kbits/s speed=0.274x elapsed=0:04:09.69    frame= 4116 fps= 16 q=27.0 size=  359680KiB time=00:01:08.55 bitrate=42983.2kbits/s speed=0.274x elapsed=0:04:10.19    frame= 4125 fps= 16 q=27.0 size=  360448KiB time=00:01:08.70 bitrate=42980.9kbits/s speed=0.274x elapsed=0:04:10.72    frame= 4133 fps= 16 q=27.0 size=  361216KiB time=00:01:08.83 bitrate=42989.1kbits/s speed=0.274x elapsed=0:04:11.24    frame= 4142 fps= 16 q=22.0 size=  361984KiB time=00:01:08.98 bitrate=42986.8kbits/s speed=0.274x elapsed=0:04:11.74    frame= 4151 fps= 16 q=24.0 size=  362496KiB time=00:01:09.13 bitrate=42954.2kbits/s speed=0.274x elapsed=0:04:12.26    frame= 4159 fps= 16 q=24.0 size=  363264KiB time=00:01:09.26 bitrate=42962.4kbits/s speed=0.274x elapsed=0:04:12.78    frame= 4168 fps= 16 q=27.0 size=  363776KiB time=00:01:09.41 bitrate=42929.9kbits/s speed=0.274x elapsed=0:04:13.28    frame= 4177 fps= 16 q=26.0 size=  364544KiB time=00:01:09.56 bitrate=42927.8kbits/s speed=0.274x elapsed=0:04:13.80    frame= 4185 fps= 16 q=26.0 size=  365568KiB time=00:01:09.70 bitrate=42966.0kbits/s speed=0.274x elapsed=0:04:14.32    frame= 4194 fps= 16 q=22.0 size=  366848KiB time=00:01:09.85 bitrate=43023.9kbits/s speed=0.274x elapsed=0:04:14.85    frame= 4203 fps= 16 q=25.0 size=  367872KiB time=00:01:10.00 bitrate=43051.5kbits/s speed=0.274x elapsed=0:04:15.35    frame= 4211 fps= 16 q=25.0 size=  368896KiB time=00:01:10.13 bitrate=43089.3kbits/s speed=0.274x elapsed=0:04:15.87    frame= 4220 fps= 16 q=28.0 size=  369664KiB time=00:01:10.28 bitrate=43086.9kbits/s speed=0.274x elapsed=0:04:16.39    frame= 4229 fps= 16 q=27.0 size=  370432KiB time=00:01:10.43 bitrate=43084.4kbits/s speed=0.274x elapsed=0:04:16.89    frame= 4237 fps= 16 q=27.0 size=  370688KiB time=00:01:10.56 bitrate=43032.7kbits/s speed=0.274x elapsed=0:04:17.41    frame= 4246 fps= 16 q=21.0 size=  371200KiB time=00:01:10.71 bitrate=43000.8kbits/s speed=0.274x elapsed=0:04:17.93    frame= 4255 fps= 16 q=27.0 size=  372480KiB time=00:01:10.86 bitrate=43057.7kbits/s speed=0.274x elapsed=0:04:18.45    frame= 4263 fps= 16 q=27.0 size=  373248KiB time=00:01:11.00 bitrate=43065.5kbits/s speed=0.274x elapsed=0:04:18.96    frame= 4272 fps= 16 q=21.0 size=  374272KiB time=00:01:11.15 bitrate=43092.6kbits/s speed=0.274x elapsed=0:04:19.48    frame= 4281 fps= 16 q=25.0 size=  375296KiB time=00:01:11.30 bitrate=43119.6kbits/s speed=0.274x elapsed=0:04:20.00    frame= 4289 fps= 16 q=25.0 size=  376064KiB time=00:01:11.43 bitrate=43127.2kbits/s speed=0.274x elapsed=0:04:20.52    frame= 4298 fps= 16 q=27.0 size=  376576KiB time=00:01:11.58 bitrate=43095.4kbits/s speed=0.274x elapsed=0:04:21.02    frame= 4307 fps= 16 q=27.0 size=  377344KiB time=00:01:11.73 bitrate=43093.0kbits/s speed=0.274x elapsed=0:04:21.54    frame= 4315 fps= 16 q=27.0 size=  377856KiB time=00:01:11.86 bitrate=43071.4kbits/s speed=0.274x elapsed=0:04:22.06    frame= 4324 fps= 16 q=20.0 size=  378368KiB time=00:01:12.01 bitrate=43039.9kbits/s speed=0.274x elapsed=0:04:22.57    frame= 4333 fps= 16 q=24.0 size=  379904KiB time=00:01:12.16 bitrate=43124.8kbits/s speed=0.274x elapsed=0:04:23.09    frame= 4342 fps= 16 q=27.0 size=  380928KiB time=00:01:12.31 bitrate=43151.4kbits/s speed=0.274x elapsed=0:04:23.61    frame= 4350 fps= 16 q=27.0 size=  381696KiB time=00:01:12.45 bitrate=43158.8kbits/s speed=0.274x elapsed=0:04:24.11    frame= 4359 fps= 16 q=28.0 size=  382464KiB time=00:01:12.60 bitrate=43156.3kbits/s speed=0.274x elapsed=0:04:24.63    frame= 4368 fps= 16 q=22.0 size=  383232KiB time=00:01:12.75 bitrate=43153.8kbits/s speed=0.274x elapsed=0:04:25.15    frame= 4376 fps= 16 q=21.0 size=  383488KiB time=00:01:12.88 bitrate=43103.6kbits/s speed=0.274x elapsed=0:04:25.67    frame= 4385 fps= 16 q=24.0 size=  384256KiB time=00:01:13.03 bitrate=43101.2kbits/s speed=0.274x elapsed=0:04:26.18    frame= 4394 fps= 16 q=27.0 size=  385024KiB time=00:01:13.18 bitrate=43098.8kbits/s speed=0.274x elapsed=0:04:26.70    frame= 4402 fps= 16 q=27.0 size=  385792KiB time=00:01:13.31 bitrate=43106.3kbits/s speed=0.274x elapsed=0:04:27.22    frame= 4411 fps= 16 q=27.0 size=  386304KiB time=00:01:13.46 bitrate=43075.4kbits/s speed=0.274x elapsed=0:04:27.74    frame= 4420 fps= 16 q=21.0 size=  387072KiB time=00:01:13.61 bitrate=43073.0kbits/s speed=0.274x elapsed=0:04:28.24    frame= 4428 fps= 16 q=21.0 size=  387584KiB time=00:01:13.75 bitrate=43052.0kbits/s speed=0.274x elapsed=0:04:28.76    frame= 4437 fps= 16 q=24.0 size=  388352KiB time=00:01:13.90 bitrate=43049.8kbits/s speed=0.274x elapsed=0:04:29.28    frame= 4446 fps= 16 q=27.0 size=  389120KiB time=00:01:14.05 bitrate=43047.6kbits/s speed=0.274x elapsed=0:04:29.80    frame= 4454 fps= 16 q=27.0 size=  389888KiB time=00:01:14.18 bitrate=43055.0kbits/s speed=0.274x elapsed=0:04:30.30    frame= 4463 fps= 16 q=27.0 size=  390912KiB time=00:01:14.33 bitrate=43081.0kbits/s speed=0.274x elapsed=0:04:30.82    frame= 4472 fps= 16 q=22.0 size=  391680KiB time=00:01:14.48 bitrate=43078.7kbits/s speed=0.274x elapsed=0:04:31.34    frame= 4480 fps= 16 q=21.0 size=  392192KiB time=00:01:14.61 bitrate=43057.9kbits/s speed=0.274x elapsed=0:04:31.85    frame= 4489 fps= 16 q=24.0 size=  392960KiB time=00:01:14.76 bitrate=43055.7kbits/s speed=0.275x elapsed=0:04:32.37    frame= 4498 fps= 16 q=27.0 size=  393728KiB time=00:01:14.91 bitrate=43053.4kbits/s speed=0.275x elapsed=0:04:32.89    frame= 4507 fps= 16 q=25.0 size=  395008KiB time=00:01:15.06 bitrate=43107.1kbits/s speed=0.275x elapsed=0:04:33.40    frame= 4515 fps= 16 q=25.0 size=  395776KiB time=00:01:15.20 bitrate=43114.3kbits/s speed=0.275x elapsed=0:04:33.91    frame= 4524 fps= 16 q=27.0 size=  396544KiB time=00:01:15.35 bitrate=43112.0kbits/s speed=0.275x elapsed=0:04:34.43    frame= 4533 fps= 16 q=27.0 size=  397312KiB time=00:01:15.50 bitrate=43109.7kbits/s speed=0.275x elapsed=0:04:34.95    frame= 4541 fps= 16 q=27.0 size=  397568KiB time=00:01:15.63 bitrate=43061.4kbits/s speed=0.275x elapsed=0:04:35.47    frame= 4550 fps= 16 q=20.0 size=  398080KiB time=00:01:15.78 bitrate=43031.5kbits/s speed=0.275x elapsed=0:04:35.99    frame= 4558 fps= 16 q=20.0 size=  398592KiB time=00:01:15.91 bitrate=43011.2kbits/s speed=0.275x elapsed=0:04:36.49    frame= 4567 fps= 16 q=25.0 size=  399616KiB time=00:01:16.06 bitrate=43036.7kbits/s speed=0.275x elapsed=0:04:37.01    frame= 4576 fps= 16 q=27.0 size=  400128KiB time=00:01:16.21 bitrate=43007.0kbits/s speed=0.275x elapsed=0:04:37.53    frame= 4584 fps= 16 q=27.0 size=  400640KiB time=00:01:16.35 bitrate=42986.8kbits/s speed=0.275x elapsed=0:04:38.03    frame= 4592 fps= 16 q=27.0 size=  401152KiB time=00:01:16.48 bitrate=42966.7kbits/s speed=0.275x elapsed=0:04:38.56    frame= 4601 fps= 16 q=27.0 size=  401664KiB time=00:01:16.63 bitrate=42937.3kbits/s speed=0.275x elapsed=0:04:39.08    frame= 4610 fps= 16 q=20.0 size=  402688KiB time=00:01:16.78 bitrate=42962.7kbits/s speed=0.275x elapsed=0:04:39.60    frame= 4618 fps= 16 q=21.0 size=  403456KiB time=00:01:16.91 bitrate=42970.0kbits/s speed=0.275x elapsed=0:04:40.10    frame= 4627 fps= 16 q=25.0 size=  404480KiB time=00:01:17.06 bitrate=42995.2kbits/s speed=0.275x elapsed=0:04:40.62    frame= 4635 fps= 16 q=25.0 size=  405504KiB time=00:01:17.20 bitrate=43029.7kbits/s speed=0.275x elapsed=0:04:41.13    frame= 4644 fps= 16 q=28.0 size=  406528KiB time=00:01:17.35 bitrate=43054.7kbits/s speed=0.275x elapsed=0:04:41.65    frame= 4653 fps= 16 q=28.0 size=  407040KiB time=00:01:17.50 bitrate=43025.4kbits/s speed=0.275x elapsed=0:04:42.17    frame= 4662 fps= 16 q=21.0 size=  407808KiB time=00:01:17.65 bitrate=43023.4kbits/s speed=0.275x elapsed=0:04:42.69    frame= 4670 fps= 16 q=21.0 size=  408320KiB time=00:01:17.78 bitrate=43003.5kbits/s speed=0.275x elapsed=0:04:43.19    frame= 4679 fps= 16 q=25.0 size=  409088KiB time=00:01:17.93 bitrate=43001.5kbits/s speed=0.275x elapsed=0:04:43.71    frame= 4687 fps= 16 q=25.0 size=  409600KiB time=00:01:18.06 bitrate=42981.8kbits/s speed=0.275x elapsed=0:04:44.23    frame= 4696 fps= 16 q=27.0 size=  410368KiB time=00:01:18.21 bitrate=42979.8kbits/s speed=0.275x elapsed=0:04:44.75    frame= 4705 fps= 16 q=28.0 size=  411136KiB time=00:01:18.36 bitrate=42977.8kbits/s speed=0.275x elapsed=0:04:45.27    frame= 4713 fps= 16 q=28.0 size=  411904KiB time=00:01:18.50 bitrate=42984.9kbits/s speed=0.275x elapsed=0:04:45.77    frame= 4722 fps= 16 q=21.0 size=  412416KiB time=00:01:18.65 bitrate=42956.3kbits/s speed=0.275x elapsed=0:04:46.29    frame= 4731 fps= 16 q=25.0 size=  413184KiB time=00:01:18.80 bitrate=42954.4kbits/s speed=0.275x elapsed=0:04:46.81    frame= 4739 fps= 16 q=25.0 size=  413952KiB time=00:01:18.93 bitrate=42961.5kbits/s speed=0.275x elapsed=0:04:47.32    frame= 4748 fps= 16 q=28.0 size=  414720KiB time=00:01:19.08 bitrate=42959.6kbits/s speed=0.275x elapsed=0:04:47.84    frame= 4757 fps= 16 q=25.0 size=  416000KiB time=00:01:19.23 bitrate=43010.6kbits/s speed=0.275x elapsed=0:04:48.36    frame= 4766 fps= 16 q=28.0 size=  416512KiB time=00:01:19.38 bitrate=42982.2kbits/s speed=0.275x elapsed=0:04:48.88    frame= 4774 fps= 16 q=28.0 size=  417024KiB time=00:01:19.51 bitrate=42962.8kbits/s speed=0.275x elapsed=0:04:49.38    frame= 4783 fps= 16 q=28.0 size=  417536KiB time=00:01:19.66 bitrate=42934.6kbits/s speed=0.275x elapsed=0:04:49.90    frame= 4792 fps= 17 q=21.0 size=  418048KiB time=00:01:19.81 bitrate=42906.4kbits/s speed=0.275x elapsed=0:04:50.41    frame= 4800 fps= 16 q=21.0 size=  418560KiB time=00:01:19.95 bitrate=42887.4kbits/s speed=0.275x elapsed=0:04:50.93    frame= 4809 fps= 16 q=25.0 size=  419328KiB time=00:01:20.10 bitrate=42885.6kbits/s speed=0.275x elapsed=0:04:51.45    frame= 4818 fps= 17 q=28.0 size=  419840KiB time=00:01:20.25 bitrate=42857.7kbits/s speed=0.275x elapsed=0:04:51.96    frame= 4826 fps= 17 q=28.0 size=  420352KiB time=00:01:20.38 bitrate=42838.8kbits/s speed=0.275x elapsed=0:04:52.47    frame= 4835 fps= 17 q=28.0 size=  420864KiB time=00:01:20.53 bitrate=42811.1kbits/s speed=0.275x elapsed=0:04:52.99    frame= 4844 fps= 17 q=21.0 size=  421376KiB time=00:01:20.68 bitrate=42783.5kbits/s speed=0.275x elapsed=0:04:53.52    frame= 4853 fps= 17 q=25.0 size=  422144KiB time=00:01:20.83 bitrate=42781.9kbits/s speed=0.275x elapsed=0:04:54.03    frame= 4861 fps= 17 q=25.0 size=  422656KiB time=00:01:20.96 bitrate=42763.3kbits/s speed=0.275x elapsed=0:04:54.55    frame= 4870 fps= 17 q=28.0 size=  423168KiB time=00:01:21.11 bitrate=42735.9kbits/s speed=0.275x elapsed=0:04:55.07    frame= 4879 fps= 17 q=28.0 size=  423936KiB time=00:01:21.26 bitrate=42734.4kbits/s speed=0.275x elapsed=0:04:55.59    frame= 4887 fps= 17 q=28.0 size=  424448KiB time=00:01:21.40 bitrate=42716.0kbits/s speed=0.275x elapsed=0:04:56.10    frame= 4896 fps= 17 q=20.0 size=  424960KiB time=00:01:21.55 bitrate=42688.8kbits/s speed=0.275x elapsed=0:04:56.62    frame= 4905 fps= 17 q=25.0 size=  425984KiB time=00:01:21.70 bitrate=42713.1kbits/s speed=0.275x elapsed=0:04:57.14    frame= 4913 fps= 17 q=25.0 size=  426496KiB time=00:01:21.83 bitrate=42694.8kbits/s speed=0.275x elapsed=0:04:57.66    frame= 4922 fps= 17 q=28.0 size=  427264KiB time=00:01:21.98 bitrate=42693.4kbits/s speed=0.275x elapsed=0:04:58.16    frame= 4931 fps= 17 q=28.0 size=  428032KiB time=00:01:22.13 bitrate=42692.0kbits/s speed=0.275x elapsed=0:04:58.68    frame= 4939 fps= 17 q=28.0 size=  428544KiB time=00:01:22.26 bitrate=42673.8kbits/s speed=0.275x elapsed=0:04:59.20    frame= 4948 fps= 17 q=20.0 size=  429312KiB time=00:01:22.41 bitrate=42672.5kbits/s speed=0.275x elapsed=0:04:59.71    frame= 4957 fps= 17 q=25.0 size=  430336KiB time=00:01:22.56 bitrate=42696.6kbits/s speed=0.275x elapsed=0:05:00.23    frame= 4965 fps= 17 q=25.0 size=  431104KiB time=00:01:22.70 bitrate=42703.8kbits/s speed=0.275x elapsed=0:05:00.74    frame= 4974 fps= 17 q=28.0 size=  431872KiB time=00:01:22.85 bitrate=42702.4kbits/s speed=0.275x elapsed=0:05:01.26    frame= 4983 fps= 17 q=28.0 size=  432640KiB time=00:01:23.00 bitrate=42701.1kbits/s speed=0.275x elapsed=0:05:01.78    frame= 4991 fps= 17 q=28.0 size=  433152KiB time=00:01:23.13 bitrate=42683.0kbits/s speed=0.275x elapsed=0:05:02.29    frame= 5000 fps= 17 q=20.0 size=  433920KiB time=00:01:23.28 bitrate=42681.7kbits/s speed=0.275x elapsed=0:05:02.81    frame= 5009 fps= 17 q=28.0 size=  435200KiB time=00:01:23.43 bitrate=42730.6kbits/s speed=0.275x elapsed=0:05:03.33    frame= 5018 fps= 17 q=21.0 size=  435968KiB time=00:01:23.58 bitrate=42729.2kbits/s speed=0.275x elapsed=0:05:03.85    frame= 5026 fps= 17 q=21.0 size=  436480KiB time=00:01:23.71 bitrate=42711.3kbits/s speed=0.275x elapsed=0:05:04.35    frame= 5035 fps= 17 q=25.0 size=  437248KiB time=00:01:23.86 bitrate=42709.9kbits/s speed=0.275x elapsed=0:05:04.87    frame= 5044 fps= 17 q=28.0 size=  438016KiB time=00:01:24.01 bitrate=42708.5kbits/s speed=0.275x elapsed=0:05:05.39    frame= 5052 fps= 17 q=28.0 size=  438528KiB time=00:01:24.15 bitrate=42690.7kbits/s speed=0.275x elapsed=0:05:05.91    frame= 5061 fps= 17 q=28.0 size=  439296KiB time=00:01:24.30 bitrate=42689.4kbits/s speed=0.275x elapsed=0:05:06.41    frame= 5069 fps= 17 q=28.0 size=  439808KiB time=00:01:24.43 bitrate=42671.6kbits/s speed=0.275x elapsed=0:05:06.93    frame= 5078 fps= 17 q=21.0 size=  440320KiB time=00:01:24.58 bitrate=42645.5kbits/s speed=0.275x elapsed=0:05:07.45    frame= 5087 fps= 17 q=25.0 size=  441344KiB time=00:01:24.73 bitrate=42669.0kbits/s speed=0.275x elapsed=0:05:07.96    frame= 5095 fps= 17 q=25.0 size=  441856KiB time=00:01:24.86 bitrate=42651.4kbits/s speed=0.275x elapsed=0:05:08.48    frame= 5104 fps= 17 q=28.0 size=  442368KiB time=00:01:25.01 bitrate=42625.5kbits/s speed=0.275x elapsed=0:05:09.00    frame= 5113 fps= 17 q=28.0 size=  443136KiB time=00:01:25.16 bitrate=42624.3kbits/s speed=0.275x elapsed=0:05:09.50    frame= 5121 fps= 17 q=28.0 size=  443904KiB time=00:01:25.30 bitrate=42631.4kbits/s speed=0.275x elapsed=0:05:10.03    frame= 5130 fps= 17 q=21.0 size=  444672KiB time=00:01:25.45 bitrate=42630.2kbits/s speed=0.275x elapsed=0:05:10.55    frame= 5139 fps= 17 q=25.0 size=  445696KiB time=00:01:25.60 bitrate=42653.5kbits/s speed=0.275x elapsed=0:05:11.05    frame= 5148 fps= 17 q=28.0 size=  446464KiB time=00:01:25.75 bitrate=42652.3kbits/s speed=0.275x elapsed=0:05:11.57    frame= 5156 fps= 17 q=28.0 size=  447232KiB time=00:01:25.88 bitrate=42659.3kbits/s speed=0.275x elapsed=0:05:12.09    frame= 5165 fps= 17 q=28.0 size=  448000KiB time=00:01:26.03 bitrate=42658.1kbits/s speed=0.275x elapsed=0:05:12.61    frame= 5174 fps= 17 q=21.0 size=  449024KiB time=00:01:26.18 bitrate=42681.2kbits/s speed=0.275x elapsed=0:05:13.11    frame= 5182 fps= 17 q=21.0 size=  449792KiB time=00:01:26.31 bitrate=42688.1kbits/s speed=0.275x elapsed=0:05:13.64    frame= 5191 fps= 17 q=25.0 size=  450816KiB time=00:01:26.46 bitrate=42711.1kbits/s speed=0.275x elapsed=0:05:14.16    frame= 5200 fps= 17 q=28.0 size=  451584KiB time=00:01:26.61 bitrate=42709.8kbits/s speed=0.275x elapsed=0:05:14.66    frame= 5208 fps= 17 q=28.0 size=  452352KiB time=00:01:26.75 bitrate=42716.6kbits/s speed=0.275x elapsed=0:05:15.18    frame= 5217 fps= 17 q=28.0 size=  452864KiB time=00:01:26.90 bitrate=42691.2kbits/s speed=0.275x elapsed=0:05:15.70    frame= 5226 fps= 17 q=20.0 size=  453376KiB time=00:01:27.05 bitrate=42665.8kbits/s speed=0.275x elapsed=0:05:16.21    frame= 5234 fps= 17 q=20.0 size=  453888KiB time=00:01:27.18 bitrate=42648.6kbits/s speed=0.275x elapsed=0:05:16.73    frame= 5243 fps= 17 q=25.0 size=  454912KiB time=00:01:27.33 bitrate=42671.4kbits/s speed=0.275x elapsed=0:05:17.25    frame= 5252 fps= 17 q=20.0 size=  455936KiB time=00:01:27.48 bitrate=42694.2kbits/s speed=0.275x elapsed=0:05:17.75    frame= 5260 fps= 17 q=20.0 size=  456704KiB time=00:01:27.61 bitrate=42701.0kbits/s speed=0.275x elapsed=0:05:18.27    frame= 5269 fps= 17 q=25.0 size=  457472KiB time=00:01:27.76 bitrate=42699.7kbits/s speed=0.275x elapsed=0:05:18.79    frame= 5278 fps= 17 q=28.0 size=  457984KiB time=00:01:27.91 bitrate=42674.6kbits/s speed=0.275x elapsed=0:05:19.31    frame= 5287 fps= 17 q=28.0 size=  458496KiB time=00:01:28.06 bitrate=42649.5kbits/s speed=0.275x elapsed=0:05:19.83    frame= 5295 fps= 17 q=28.0 size=  459008KiB time=00:01:28.20 bitrate=42632.6kbits/s speed=0.275x elapsed=0:05:20.34    frame= 5304 fps= 17 q=20.0 size=  459776KiB time=00:01:28.35 bitrate=42631.4kbits/s speed=0.275x elapsed=0:05:20.86    frame= 5313 fps= 17 q=25.0 size=  460544KiB time=00:01:28.50 bitrate=42630.2kbits/s speed=0.275x elapsed=0:05:21.38    frame= 5321 fps= 17 q=25.0 size=  461056KiB time=00:01:28.63 bitrate=42613.4kbits/s speed=0.275x elapsed=0:05:21.90    frame= 5330 fps= 17 q=28.0 size=  461568KiB time=00:01:28.78 bitrate=42588.7kbits/s speed=0.275x elapsed=0:05:22.42    frame= 5339 fps= 17 q=28.0 size=  462336KiB time=00:01:28.93 bitrate=42587.6kbits/s speed=0.275x elapsed=0:05:22.94    frame= 5348 fps= 17 q=20.0 size=  463104KiB time=00:01:29.08 bitrate=42586.5kbits/s speed=0.275x elapsed=0:05:23.44    frame= 5356 fps= 17 q=20.0 size=  463616KiB time=00:01:29.21 bitrate=42569.9kbits/s speed=0.275x elapsed=0:05:23.96    frame= 5365 fps= 17 q=25.0 size=  464640KiB time=00:01:29.36 bitrate=42592.3kbits/s speed=0.275x elapsed=0:05:24.48    frame= 5374 fps= 17 q=28.0 size=  465152KiB time=00:01:29.51 bitrate=42567.8kbits/s speed=0.275x elapsed=0:05:25.00    frame= 5382 fps= 17 q=28.0 size=  465664KiB time=00:01:29.65 bitrate=42551.3kbits/s speed=0.275x elapsed=0:05:25.50    frame= 5391 fps= 17 q=28.0 size=  466432KiB time=00:01:29.80 bitrate=42550.2kbits/s speed=0.275x elapsed=0:05:26.03    frame= 5399 fps= 17 q=28.0 size=  466944KiB time=00:01:29.93 bitrate=42533.8kbits/s speed=0.275x elapsed=0:05:26.54    frame= 5408 fps= 17 q=20.0 size=  467456KiB time=00:01:30.08 bitrate=42509.5kbits/s speed=0.275x elapsed=0:05:27.05    frame= 5417 fps= 17 q=25.0 size=  468480KiB time=00:01:30.23 bitrate=42531.8kbits/s speed=0.275x elapsed=0:05:27.57    frame= 5425 fps= 17 q=25.0 size=  468992KiB time=00:01:30.36 bitrate=42515.5kbits/s speed=0.275x elapsed=0:05:28.09    frame= 5434 fps= 17 q=28.0 size=  469504KiB time=00:01:30.51 bitrate=42491.4kbits/s speed=0.275x elapsed=0:05:28.61    frame= 5442 fps= 17 q=28.0 size=  470016KiB time=00:01:30.65 bitrate=42475.1kbits/s speed=0.275x elapsed=0:05:29.11    frame= 5451 fps= 17 q=28.0 size=  470784KiB time=00:01:30.80 bitrate=42474.3kbits/s speed=0.275x elapsed=0:05:29.64    frame= 5460 fps= 17 q=20.0 size=  471552KiB time=00:01:30.95 bitrate=42473.4kbits/s speed=0.275x elapsed=0:05:30.16    frame= 5469 fps= 17 q=25.0 size=  472576KiB time=00:01:31.10 bitrate=42495.5kbits/s speed=0.276x elapsed=0:05:30.66    frame= 5477 fps= 17 q=25.0 size=  473088KiB time=00:01:31.23 bitrate=42479.4kbits/s speed=0.275x elapsed=0:05:31.18    frame= 5486 fps= 17 q=27.0 size=  474112KiB time=00:01:31.38 bitrate=42501.5kbits/s speed=0.275x elapsed=0:05:31.71    frame= 5495 fps= 17 q=28.0 size=  474624KiB time=00:01:31.53 bitrate=42477.6kbits/s speed=0.276x elapsed=0:05:32.21    frame= 5503 fps= 17 q=25.0 size=  476160KiB time=00:01:31.66 bitrate=42553.1kbits/s speed=0.275x elapsed=0:05:32.73    frame= 5512 fps= 17 q=28.0 size=  476672KiB time=00:01:31.81 bitrate=42529.3kbits/s speed=0.276x elapsed=0:05:33.25    frame= 5521 fps= 17 q=28.0 size=  477184KiB time=00:01:31.96 bitrate=42505.5kbits/s speed=0.276x elapsed=0:05:33.77    frame= 5529 fps= 17 q=28.0 size=  477952KiB time=00:01:32.10 bitrate=42512.3kbits/s speed=0.276x elapsed=0:05:34.27    frame= 5538 fps= 17 q=20.0 size=  478464KiB time=00:01:32.25 bitrate=42488.6kbits/s speed=0.276x elapsed=0:05:34.79    frame= 5547 fps= 17 q=25.0 size=  479488KiB time=00:01:32.40 bitrate=42510.5kbits/s speed=0.276x elapsed=0:05:35.31    frame= 5555 fps= 17 q=25.0 size=  480256KiB time=00:01:32.53 bitrate=42517.2kbits/s speed=0.276x elapsed=0:05:35.82    frame= 5564 fps= 17 q=28.0 size=  481024KiB time=00:01:32.68 bitrate=42516.3kbits/s speed=0.276x elapsed=0:05:36.34    frame= 5573 fps= 17 q=28.0 size=  481536KiB time=00:01:32.83 bitrate=42492.7kbits/s speed=0.276x elapsed=0:05:36.86    frame= 5582 fps= 17 q=20.0 size=  482304KiB time=00:01:32.98 bitrate=42491.9kbits/s speed=0.276x elapsed=0:05:37.38    frame= 5590 fps= 17 q=20.0 size=  482816KiB time=00:01:33.11 bitrate=42476.1kbits/s speed=0.276x elapsed=0:05:37.88    frame= 5599 fps= 17 q=25.0 size=  483840KiB time=00:01:33.26 bitrate=42497.7kbits/s speed=0.276x elapsed=0:05:38.40    frame= 5608 fps= 17 q=28.0 size=  484608KiB time=00:01:33.41 bitrate=42496.8kbits/s speed=0.276x elapsed=0:05:38.92    frame= 5616 fps= 17 q=28.0 size=  485120KiB time=00:01:33.55 bitrate=42481.1kbits/s speed=0.276x elapsed=0:05:39.44    frame= 5625 fps= 17 q=28.0 size=  485888KiB time=00:01:33.70 bitrate=42480.2kbits/s speed=0.276x elapsed=0:05:39.95    frame= 5634 fps= 17 q=20.0 size=  486400KiB time=00:01:33.85 bitrate=42457.0kbits/s speed=0.276x elapsed=0:05:40.47    frame= 5642 fps= 17 q=20.0 size=  486912KiB time=00:01:33.98 bitrate=42441.4kbits/s speed=0.276x elapsed=0:05:40.99    frame= 5651 fps= 17 q=25.0 size=  487680KiB time=00:01:34.13 bitrate=42440.6kbits/s speed=0.276x elapsed=0:05:41.51    frame= 5660 fps= 17 q=28.0 size=  488448KiB time=00:01:34.28 bitrate=42439.8kbits/s speed=0.276x elapsed=0:05:42.03    frame= 5669 fps= 17 q=28.0 size=  488960KiB time=00:01:34.43 bitrate=42416.8kbits/s speed=0.276x elapsed=0:05:42.55    frame= 5677 fps= 17 q=28.0 size=  489472KiB time=00:01:34.56 bitrate=42401.4kbits/s speed=0.276x elapsed=0:05:43.05    frame= 5686 fps= 17 q=20.0 size=  490240KiB time=00:01:34.71 bitrate=42400.6kbits/s speed=0.276x elapsed=0:05:43.57    frame= 5695 fps= 17 q=25.0 size=  491008KiB time=00:01:34.86 bitrate=42399.9kbits/s speed=0.276x elapsed=0:05:44.09    frame= 5703 fps= 17 q=25.0 size=  491520KiB time=00:01:35.00 bitrate=42384.5kbits/s speed=0.276x elapsed=0:05:44.60    frame= 5712 fps= 17 q=27.0 size=  492032KiB time=00:01:35.15 bitrate=42361.8kbits/s speed=0.276x elapsed=0:05:45.11    frame= 5721 fps= 17 q=27.0 size=  492544KiB time=00:01:35.30 bitrate=42339.1kbits/s speed=0.276x elapsed=0:05:45.63    frame= 5729 fps= 17 q=27.0 size=  493056KiB time=00:01:35.43 bitrate=42323.9kbits/s speed=0.276x elapsed=0:05:46.15    frame= 5738 fps= 17 q=20.0 size=  493568KiB time=00:01:35.58 bitrate=42301.4kbits/s speed=0.276x elapsed=0:05:46.67    frame= 5747 fps= 17 q=24.0 size=  494336KiB time=00:01:35.73 bitrate=42300.8kbits/s speed=0.276x elapsed=0:05:47.18    frame= 5755 fps= 17 q=27.0 size=  495616KiB time=00:01:35.86 bitrate=42351.4kbits/s speed=0.276x elapsed=0:05:47.70    frame= 5764 fps= 17 q=20.0 size=  496384KiB time=00:01:36.01 bitrate=42350.8kbits/s speed=0.276x elapsed=0:05:48.21    frame= 5773 fps= 17 q=25.0 size=  497152KiB time=00:01:36.16 bitrate=42350.1kbits/s speed=0.276x elapsed=0:05:48.73    frame= 5781 fps= 17 q=24.0 size=  497664KiB time=00:01:36.30 bitrate=42335.0kbits/s speed=0.276x elapsed=0:05:49.24    frame= 5790 fps= 17 q=27.0 size=  498176KiB time=00:01:36.45 bitrate=42312.7kbits/s speed=0.276x elapsed=0:05:49.76    frame= 5799 fps= 17 q=27.0 size=  498944KiB time=00:01:36.60 bitrate=42312.1kbits/s speed=0.276x elapsed=0:05:50.28    frame= 5808 fps= 17 q=20.0 size=  499456KiB time=00:01:36.75 bitrate=42289.9kbits/s speed=0.276x elapsed=0:05:50.80    frame= 5816 fps= 17 q=20.0 size=  499968KiB time=00:01:36.88 bitrate=42275.0kbits/s speed=0.276x elapsed=0:05:51.30    frame= 5825 fps= 17 q=25.0 size=  500736KiB time=00:01:37.03 bitrate=42274.4kbits/s speed=0.276x elapsed=0:05:51.83    frame= 5834 fps= 17 q=27.0 size=  501248KiB time=00:01:37.18 bitrate=42252.3kbits/s speed=0.276x elapsed=0:05:52.33    frame= 5842 fps= 17 q=27.0 size=  501760KiB time=00:01:37.31 bitrate=42237.6kbits/s speed=0.276x elapsed=0:05:52.85    frame= 5851 fps= 17 q=27.0 size=  502528KiB time=00:01:37.46 bitrate=42237.1kbits/s speed=0.276x elapsed=0:05:53.37    frame= 5860 fps= 17 q=20.0 size=  503040KiB time=00:01:37.61 bitrate=42215.2kbits/s speed=0.276x elapsed=0:05:53.89    frame= 5868 fps= 17 q=20.0 size=  503552KiB time=00:01:37.75 bitrate=42200.5kbits/s speed=0.276x elapsed=0:05:54.39    frame= 5877 fps= 17 q=24.0 size=  504320KiB time=00:01:37.90 bitrate=42200.1kbits/s speed=0.276x elapsed=0:05:54.92    frame= 5886 fps= 17 q=27.0 size=  504832KiB time=00:01:38.05 bitrate=42178.3kbits/s speed=0.276x elapsed=0:05:55.44    frame= 5895 fps= 17 q=27.0 size=  505344KiB time=00:01:38.20 bitrate=42156.6kbits/s speed=0.276x elapsed=0:05:55.96    frame= 5903 fps= 17 q=27.0 size=  505856KiB time=00:01:38.33 bitrate=42142.1kbits/s speed=0.276x elapsed=0:05:56.48    frame= 5912 fps= 17 q=20.0 size=  506624KiB time=00:01:38.48 bitrate=42141.8kbits/s speed=0.276x elapsed=0:05:56.99    frame= 5921 fps= 17 q=24.0 size=  507392KiB time=00:01:38.63 bitrate=42141.5kbits/s speed=0.276x elapsed=0:05:57.52    frame= 5930 fps= 17 q=27.0 size=  507904KiB time=00:01:38.78 bitrate=42120.0kbits/s speed=0.276x elapsed=0:05:58.03    frame= 5938 fps= 17 q=27.0 size=  508416KiB time=00:01:38.91 bitrate=42105.6kbits/s speed=0.276x elapsed=0:05:58.55    frame= 5947 fps= 17 q=27.0 size=  508928KiB time=00:01:39.06 bitrate=42084.2kbits/s speed=0.276x elapsed=0:05:59.08    frame= 5956 fps= 17 q=20.0 size=  509440KiB time=00:01:39.21 bitrate=42062.8kbits/s speed=0.276x elapsed=0:05:59.59    frame= 5964 fps= 17 q=20.0 size=  509952KiB time=00:01:39.35 bitrate=42048.6kbits/s speed=0.276x elapsed=0:06:00.10    frame= 5973 fps= 17 q=24.0 size=  510976KiB time=00:01:39.50 bitrate=42069.5kbits/s speed=0.276x elapsed=0:06:00.62    frame= 5982 fps= 17 q=27.0 size=  511488KiB time=00:01:39.65 bitrate=42048.3kbits/s speed=0.276x elapsed=0:06:01.13    frame= 5990 fps= 17 q=27.0 size=  512256KiB time=00:01:39.78 bitrate=42055.1kbits/s speed=0.276x elapsed=0:06:01.66    frame= 5999 fps= 17 q=27.0 size=  512768KiB time=00:01:39.93 bitrate=42034.0kbits/s speed=0.276x elapsed=0:06:02.16    frame= 6008 fps= 17 q=27.0 size=  514560KiB time=00:01:40.08 bitrate=42117.7kbits/s speed=0.276x elapsed=0:06:02.68    frame= 6016 fps= 17 q=27.0 size=  515072KiB time=00:01:40.21 bitrate=42103.5kbits/s speed=0.276x elapsed=0:06:03.20    frame= 6025 fps= 17 q=27.0 size=  515584KiB time=00:01:40.36 bitrate=42082.3kbits/s speed=0.276x elapsed=0:06:03.72    frame= 6034 fps= 17 q=20.0 size=  516096KiB time=00:01:40.51 bitrate=42061.3kbits/s speed=0.276x elapsed=0:06:04.22    frame= 6042 fps= 17 q=20.0 size=  516608KiB time=00:01:40.65 bitrate=42047.2kbits/s speed=0.276x elapsed=0:06:04.74    frame= 6051 fps= 17 q=24.0 size=  517120KiB time=00:01:40.80 bitrate=42026.3kbits/s speed=0.276x elapsed=0:06:05.26    frame= 6060 fps= 17 q=26.0 size=  517888KiB time=00:01:40.95 bitrate=42026.1kbits/s speed=0.276x elapsed=0:06:05.78    frame= 6068 fps= 17 q=26.0 size=  518656KiB time=00:01:41.08 bitrate=42032.9kbits/s speed=0.276x elapsed=0:06:06.30    frame= 6077 fps= 17 q=27.0 size=  519168KiB time=00:01:41.23 bitrate=42012.1kbits/s speed=0.276x elapsed=0:06:06.80    frame= 6086 fps= 17 q=20.0 size=  519680KiB time=00:01:41.38 bitrate=41991.3kbits/s speed=0.276x elapsed=0:06:07.32    frame= 6094 fps= 17 q=20.0 size=  520192KiB time=00:01:41.51 bitrate=41977.5kbits/s speed=0.276x elapsed=0:06:07.84    frame= 6103 fps= 17 q=24.0 size=  520960KiB time=00:01:41.66 bitrate=41977.4kbits/s speed=0.276x elapsed=0:06:08.36    frame= 6111 fps= 17 q=24.0 size=  521728KiB time=00:01:41.80 bitrate=41984.2kbits/s speed=0.276x elapsed=0:06:08.86    frame= 6120 fps= 17 q=27.0 size=  522240KiB time=00:01:41.95 bitrate=41963.6kbits/s speed=0.276x elapsed=0:06:09.39    frame= 6129 fps= 17 q=27.0 size=  522752KiB time=00:01:42.10 bitrate=41943.0kbits/s speed=0.276x elapsed=0:06:09.90    frame= 6137 fps= 17 q=27.0 size=  523264KiB time=00:01:42.23 bitrate=41929.4kbits/s speed=0.276x elapsed=0:06:10.42    frame= 6146 fps= 17 q=19.0 size=  524032KiB time=00:01:42.38 bitrate=41929.4kbits/s speed=0.276x elapsed=0:06:10.94    frame= 6155 fps= 17 q=24.0 size=  525056KiB time=00:01:42.53 bitrate=41949.9kbits/s speed=0.276x elapsed=0:06:11.44    frame= 6164 fps= 17 q=27.0 size=  525824KiB time=00:01:42.68 bitrate=41949.9kbits/s speed=0.276x elapsed=0:06:11.96    frame= 6172 fps= 17 q=27.0 size=  526336KiB time=00:01:42.81 bitrate=41936.2kbits/s speed=0.276x elapsed=0:06:12.48    frame= 6181 fps= 17 q=27.0 size=  526848KiB time=00:01:42.96 bitrate=41915.9kbits/s speed=0.276x elapsed=0:06:12.99    frame= 6190 fps= 17 q=19.0 size=  527616KiB time=00:01:43.11 bitrate=41915.9kbits/s speed=0.276x elapsed=0:06:13.51    frame= 6198 fps= 17 q=19.0 size=  528128KiB time=00:01:43.25 bitrate=41902.4kbits/s speed=0.276x elapsed=0:06:14.03    frame= 6207 fps= 17 q=24.0 size=  529152KiB time=00:01:43.40 bitrate=41922.8kbits/s speed=0.276x elapsed=0:06:14.54    frame= 6216 fps= 17 q=27.0 size=  529920KiB time=00:01:43.55 bitrate=41922.8kbits/s speed=0.276x elapsed=0:06:15.06    frame= 6224 fps= 17 q=27.0 size=  530432KiB time=00:01:43.68 bitrate=41909.3kbits/s speed=0.276x elapsed=0:06:15.58    frame= 6233 fps= 17 q=27.0 size=  531200KiB time=00:01:43.83 bitrate=41909.4kbits/s speed=0.276x elapsed=0:06:16.10    frame= 6242 fps= 17 q=19.0 size=  531968KiB time=00:01:43.98 bitrate=41909.4kbits/s speed=0.276x elapsed=0:06:16.60    frame= 6250 fps= 17 q=19.0 size=  532480KiB time=00:01:44.11 bitrate=41896.0kbits/s speed=0.276x elapsed=0:06:17.12    frame= 6259 fps= 17 q=27.0 size=  534272KiB time=00:01:44.26 bitrate=41976.6kbits/s speed=0.276x elapsed=0:06:17.64    frame= 6268 fps= 17 q=19.0 size=  535040KiB time=00:01:44.41 bitrate=41976.5kbits/s speed=0.276x elapsed=0:06:18.15    frame= 6276 fps= 17 q=19.0 size=  535808KiB time=00:01:44.55 bitrate=41983.2kbits/s speed=0.276x elapsed=0:06:18.67    frame= 6285 fps= 17 q=24.0 size=  536832KiB time=00:01:44.70 bitrate=42003.1kbits/s speed=0.276x elapsed=0:06:19.19    frame= 6294 fps= 17 q=27.0 size=  537600KiB time=00:01:44.85 bitrate=42003.0kbits/s speed=0.276x elapsed=0:06:19.69    frame= 6302 fps= 17 q=27.0 size=  538112KiB time=00:01:44.98 bitrate=41989.7kbits/s speed=0.276x elapsed=0:06:20.21    frame= 6311 fps= 17 q=27.0 size=  538880KiB time=00:01:45.13 bitrate=41989.6kbits/s speed=0.276x elapsed=0:06:20.73    frame= 6320 fps= 17 q=19.0 size=  539648KiB time=00:01:45.28 bitrate=41989.5kbits/s speed=0.276x elapsed=0:06:21.24    frame= 6328 fps= 17 q=19.0 size=  540416KiB time=00:01:45.41 bitrate=41996.1kbits/s speed=0.276x elapsed=0:06:21.76    frame= 6337 fps= 17 q=24.0 size=  541184KiB time=00:01:45.56 bitrate=41996.0kbits/s speed=0.276x elapsed=0:06:22.28    frame= 6346 fps= 17 q=27.0 size=  541952KiB time=00:01:45.71 bitrate=41995.9kbits/s speed=0.276x elapsed=0:06:22.79    frame= 6354 fps= 17 q=27.0 size=  542720KiB time=00:01:45.85 bitrate=42002.5kbits/s speed=0.276x elapsed=0:06:23.31    frame= 6363 fps= 17 q=27.0 size=  543488KiB time=00:01:46.00 bitrate=42002.4kbits/s speed=0.276x elapsed=0:06:23.83    frame= 6372 fps= 17 q=20.0 size=  544000KiB time=00:01:46.15 bitrate=41982.6kbits/s speed=0.276x elapsed=0:06:24.35    frame= 6380 fps= 17 q=19.0 size=  544768KiB time=00:01:46.28 bitrate=41989.1kbits/s speed=0.276x elapsed=0:06:24.85    frame= 6389 fps= 17 q=24.0 size=  545792KiB time=00:01:46.43 bitrate=42008.7kbits/s speed=0.276x elapsed=0:06:25.37    frame= 6398 fps= 17 q=27.0 size=  546560KiB time=00:01:46.58 bitrate=42008.6kbits/s speed=0.276x elapsed=0:06:25.89    frame= 6407 fps= 17 q=27.0 size=  547072KiB time=00:01:46.73 bitrate=41988.9kbits/s speed=0.276x elapsed=0:06:26.41    frame= 6415 fps= 17 q=27.0 size=  547840KiB time=00:01:46.86 bitrate=41995.4kbits/s speed=0.276x elapsed=0:06:26.91    frame= 6424 fps= 17 q=19.0 size=  548608KiB time=00:01:47.01 bitrate=41995.3kbits/s speed=0.276x elapsed=0:06:27.43    frame= 6433 fps= 17 q=24.0 size=  549376KiB time=00:01:47.16 bitrate=41995.2kbits/s speed=0.276x elapsed=0:06:27.95    frame= 6441 fps= 17 q=24.0 size=  550144KiB time=00:01:47.30 bitrate=42001.7kbits/s speed=0.276x elapsed=0:06:28.46    frame= 6450 fps= 17 q=27.0 size=  550912KiB time=00:01:47.45 bitrate=42001.6kbits/s speed=0.276x elapsed=0:06:28.98    frame= 6459 fps= 17 q=27.0 size=  551680KiB time=00:01:47.60 bitrate=42001.5kbits/s speed=0.276x elapsed=0:06:29.50    frame= 6467 fps= 17 q=27.0 size=  552192KiB time=00:01:47.73 bitrate=41988.5kbits/s speed=0.276x elapsed=0:06:30.00    frame= 6476 fps= 17 q=20.0 size=  552704KiB time=00:01:47.88 bitrate=41969.0kbits/s speed=0.276x elapsed=0:06:30.53    frame= 6485 fps= 17 q=24.0 size=  553728KiB time=00:01:48.03 bitrate=41988.3kbits/s speed=0.276x elapsed=0:06:31.05    frame= 6494 fps= 17 q=27.0 size=  554496KiB time=00:01:48.18 bitrate=41988.3kbits/s speed=0.276x elapsed=0:06:31.55    frame= 6502 fps= 17 q=20.0 size=  555776KiB time=00:01:48.31 bitrate=42033.4kbits/s speed=0.276x elapsed=0:06:32.07    frame= 6511 fps= 17 q=24.0 size=  556800KiB time=00:01:48.46 bitrate=42052.6kbits/s speed=0.276x elapsed=0:06:32.58    frame= 6520 fps= 17 q=27.0 size=  557312KiB time=00:01:48.61 bitrate=42033.1kbits/s speed=0.276x elapsed=0:06:33.10    frame= 6528 fps= 17 q=27.0 size=  557824KiB time=00:01:48.75 bitrate=42020.2kbits/s speed=0.276x elapsed=0:06:33.62    frame= 6537 fps= 17 q=27.0 size=  558592KiB time=00:01:48.90 bitrate=42020.1kbits/s speed=0.276x elapsed=0:06:34.14    frame= 6546 fps= 17 q=20.0 size=  559104KiB time=00:01:49.05 bitrate=42000.7kbits/s speed=0.276x elapsed=0:06:34.65    frame= 6554 fps= 17 q=19.0 size=  559616KiB time=00:01:49.18 bitrate=41987.9kbits/s speed=0.276x elapsed=0:06:35.17    frame= 6563 fps= 17 q=24.0 size=  560896KiB time=00:01:49.33 bitrate=42026.2kbits/s speed=0.276x elapsed=0:06:35.69    frame= 6572 fps= 17 q=27.0 size=  561408KiB time=00:01:49.48 bitrate=42006.9kbits/s speed=0.276x elapsed=0:06:36.19    frame= 6580 fps= 17 q=27.0 size=  562176KiB time=00:01:49.61 bitrate=42013.2kbits/s speed=0.276x elapsed=0:06:36.71    frame= 6589 fps= 17 q=27.0 size=  562688KiB time=00:01:49.76 bitrate=41994.0kbits/s speed=0.276x elapsed=0:06:37.23    frame= 6598 fps= 17 q=20.0 size=  563456KiB time=00:01:49.91 bitrate=41993.9kbits/s speed=0.276x elapsed=0:06:37.75    frame= 6606 fps= 17 q=20.0 size=  564224KiB time=00:01:50.05 bitrate=42000.2kbits/s speed=0.276x elapsed=0:06:38.27    frame= 6615 fps= 17 q=24.0 size=  565248KiB time=00:01:50.20 bitrate=42019.2kbits/s speed=0.276x elapsed=0:06:38.77    frame= 6624 fps= 17 q=27.0 size=  566016KiB time=00:01:50.35 bitrate=42019.1kbits/s speed=0.276x elapsed=0:06:39.29    frame= 6632 fps= 17 q=27.0 size=  567040KiB time=00:01:50.48 bitrate=42044.3kbits/s speed=0.276x elapsed=0:06:39.81    frame= 6641 fps= 17 q=27.0 size=  568064KiB time=00:01:50.63 bitrate=42063.1kbits/s speed=0.276x elapsed=0:06:40.33    frame= 6650 fps= 17 q=20.0 size=  569088KiB time=00:01:50.78 bitrate=42081.9kbits/s speed=0.276x elapsed=0:06:40.83    frame= 6658 fps= 17 q=20.0 size=  570112KiB time=00:01:50.91 bitrate=42106.9kbits/s speed=0.276x elapsed=0:06:41.35    frame= 6667 fps= 17 q=25.0 size=  571392KiB time=00:01:51.06 bitrate=42144.5kbits/s speed=0.276x elapsed=0:06:41.87    frame= 6675 fps= 17 q=25.0 size=  572160KiB time=00:01:51.20 bitrate=42150.5kbits/s speed=0.276x elapsed=0:06:42.38    frame= 6684 fps= 17 q=27.0 size=  573184KiB time=00:01:51.35 bitrate=42169.0kbits/s speed=0.276x elapsed=0:06:42.90    frame= 6693 fps= 17 q=27.0 size=  574208KiB time=00:01:51.50 bitrate=42187.6kbits/s speed=0.276x elapsed=0:06:43.42    frame= 6702 fps= 17 q=21.0 size=  575232KiB time=00:01:51.65 bitrate=42206.0kbits/s speed=0.276x elapsed=0:06:43.94    frame= 6710 fps= 17 q=21.0 size=  576512KiB time=00:01:51.78 bitrate=42249.5kbits/s speed=0.276x elapsed=0:06:44.44    frame= 6719 fps= 17 q=25.0 size=  577536KiB time=00:01:51.93 bitrate=42267.8kbits/s speed=0.276x elapsed=0:06:44.96    frame= 6728 fps= 17 q=28.0 size=  578816KiB time=00:01:52.08 bitrate=42304.8kbits/s speed=0.276x elapsed=0:06:45.48    frame= 6736 fps= 17 q=28.0 size=  579584KiB time=00:01:52.21 bitrate=42310.6kbits/s speed=0.276x elapsed=0:06:46.00    frame= 6745 fps= 17 q=28.0 size=  580608KiB time=00:01:52.36 bitrate=42328.8kbits/s speed=0.276x elapsed=0:06:46.51    frame= 6754 fps= 17 q=28.0 size=  582400KiB time=00:01:52.51 bitrate=42402.8kbits/s speed=0.276x elapsed=0:06:47.03    frame= 6763 fps= 17 q=28.0 size=  583424KiB time=00:01:52.66 bitrate=42420.8kbits/s speed=0.276x elapsed=0:06:47.55    frame= 6771 fps= 17 q=28.0 size=  584448KiB time=00:01:52.80 bitrate=42445.0kbits/s speed=0.276x elapsed=0:06:48.05    frame= 6780 fps= 17 q=22.0 size=  585472KiB time=00:01:52.95 bitrate=42462.9kbits/s speed=0.276x elapsed=0:06:48.57    [out#0/mp4 @ 000002fae42b3b40] video:587793KiB audio:0KiB subtitle:0KiB other streams:0KiB global headers:0KiB muxing overhead: 0.014887%
frame= 6798 fps= 17 q=28.0 Lsize=  587880KiB time=00:01:53.25 bitrate=42524.6kbits/s speed=0.277x elapsed=0:06:48.77    
